<mxfile host="app.diagrams.net" agent="Mozilla/5.0 (Windows NT 10.0; Win64; x64) AppleWebKit/537.36 (KHTML, like Gecko) Chrome/133.0.0.0 Safari/537.36" version="26.0.16">
  <diagram name="Page-1" id="x9Z9wef-wiQ032Vp-9QY">
    <mxGraphModel dx="2474" dy="839" grid="1" gridSize="10" guides="1" tooltips="1" connect="1" arrows="1" fold="1" page="1" pageScale="1" pageWidth="827" pageHeight="1169" math="0" shadow="0">
      <root>
        <mxCell id="0" />
        <mxCell id="1" parent="0" />
        <mxCell id="uHJZRJn1Bud5fzUKYIxY-1" value="" style="rounded=1;whiteSpace=wrap;html=1;movable=0;resizable=0;rotatable=0;deletable=0;editable=0;locked=1;connectable=0;" parent="1" vertex="1">
          <mxGeometry x="-340" y="40" width="1910" height="810" as="geometry" />
        </mxCell>
        <mxCell id="uHJZRJn1Bud5fzUKYIxY-15" style="edgeStyle=orthogonalEdgeStyle;rounded=0;orthogonalLoop=1;jettySize=auto;html=1;exitX=1;exitY=0.5;exitDx=0;exitDy=0;entryX=0;entryY=0.5;entryDx=0;entryDy=0;" parent="1" source="uHJZRJn1Bud5fzUKYIxY-2" target="uHJZRJn1Bud5fzUKYIxY-14" edge="1">
          <mxGeometry relative="1" as="geometry" />
        </mxCell>
        <mxCell id="oo_KVRj11kOssmEsgrUC-10" value="Button" style="edgeLabel;html=1;align=center;verticalAlign=middle;resizable=0;points=[];" vertex="1" connectable="0" parent="uHJZRJn1Bud5fzUKYIxY-15">
          <mxGeometry x="-0.1555" y="1" relative="1" as="geometry">
            <mxPoint as="offset" />
          </mxGeometry>
        </mxCell>
        <mxCell id="uHJZRJn1Bud5fzUKYIxY-2" value="Landing webpage to enter email" style="rounded=1;whiteSpace=wrap;html=1;" parent="1" vertex="1">
          <mxGeometry x="120" y="255.81" width="180" height="90" as="geometry" />
        </mxCell>
        <mxCell id="uHJZRJn1Bud5fzUKYIxY-9" style="edgeStyle=orthogonalEdgeStyle;rounded=0;orthogonalLoop=1;jettySize=auto;html=1;exitX=1;exitY=0.5;exitDx=0;exitDy=0;entryX=0;entryY=0.5;entryDx=0;entryDy=0;" parent="1" source="uHJZRJn1Bud5fzUKYIxY-4" target="uHJZRJn1Bud5fzUKYIxY-8" edge="1">
          <mxGeometry relative="1" as="geometry">
            <mxPoint x="640" y="300.81" as="sourcePoint" />
          </mxGeometry>
        </mxCell>
        <mxCell id="oo_KVRj11kOssmEsgrUC-12" value="Button" style="edgeLabel;html=1;align=center;verticalAlign=middle;resizable=0;points=[];" vertex="1" connectable="0" parent="uHJZRJn1Bud5fzUKYIxY-9">
          <mxGeometry x="-0.0241" y="-2" relative="1" as="geometry">
            <mxPoint as="offset" />
          </mxGeometry>
        </mxCell>
        <mxCell id="uHJZRJn1Bud5fzUKYIxY-4" value="Email notification rendered by custom HTML and CSS" style="rounded=1;whiteSpace=wrap;html=1;" parent="1" vertex="1">
          <mxGeometry x="653.5" y="255.81" width="180" height="90" as="geometry" />
        </mxCell>
        <mxCell id="uHJZRJn1Bud5fzUKYIxY-5" value="&lt;b&gt;&lt;font style=&quot;color: light-dark(rgb(249, 215, 0), rgb(0, 0, 0)); font-size: 36px;&quot;&gt;Sportsbet &lt;font style=&quot;&quot;&gt;notification &lt;/font&gt;engine process flow&lt;/font&gt;&lt;/b&gt;" style="text;html=1;align=center;verticalAlign=middle;whiteSpace=wrap;rounded=0;" parent="1" vertex="1">
          <mxGeometry x="270" y="70" width="670" height="130" as="geometry" />
        </mxCell>
        <mxCell id="uHJZRJn1Bud5fzUKYIxY-6" value="&lt;p class=&quot;MsoNormal&quot;&gt;&lt;i&gt;The Business has asked you to come up with a solution for&lt;br&gt;unsubscribing customers from emails. User journey is as follows â€“&amp;nbsp;&lt;/i&gt;&lt;/p&gt;&lt;i style=&quot;background-color: transparent; color: light-dark(rgb(0, 0, 0), rgb(255, 255, 255));&quot;&gt;&lt;ol type=&quot;1&quot; start=&quot;1&quot; style=&quot;margin-top:0cm&quot;&gt;&lt;li&gt;&lt;i style=&quot;background-color: transparent; color: light-dark(rgb(0, 0, 0), rgb(255, 255, 255));&quot;&gt;Customers&amp;nbsp;&lt;/i&gt;&lt;i style=&quot;background-color: transparent; color: light-dark(rgb(0, 0, 0), rgb(255, 255, 255));&quot;&gt;will receive a link from email&amp;nbsp;&lt;/i&gt;&lt;/li&gt;&lt;li&gt;&lt;i style=&quot;background-color: transparent; color: light-dark(rgb(0, 0, 0), rgb(255, 255, 255));&quot;&gt;They&amp;nbsp;&lt;/i&gt;&lt;i style=&quot;background-color: transparent; color: light-dark(rgb(0, 0, 0), rgb(255, 255, 255));&quot;&gt;have to click on it and submit their preferences to unsubscribe via a&amp;nbsp;&lt;/i&gt;&lt;i style=&quot;background-color: transparent; color: light-dark(rgb(0, 0, 0), rgb(255, 255, 255));&quot;&gt;webpage&amp;nbsp;&lt;/i&gt;&lt;/li&gt;&lt;li&gt;&lt;i style=&quot;background-color: transparent; color: light-dark(rgb(0, 0, 0), rgb(255, 255, 255));&quot;&gt;They get a success message on the webpage&lt;/i&gt;&lt;/li&gt;&lt;br&gt;&lt;/ol&gt;&lt;/i&gt;&lt;div&gt;&lt;p style=&quot;&quot; class=&quot;MsoNormal&quot;&gt;&lt;i style=&quot;background-color: transparent; color: light-dark(rgb(0, 0, 0), rgb(255, 255, 255));&quot;&gt;Please utilise any technologies you are comfortable with&amp;nbsp;&lt;/i&gt;&lt;i style=&quot;background-color: transparent; color: light-dark(rgb(0, 0, 0), rgb(255, 255, 255));&quot;&gt;and which you feel are suitable for the solution. You will share your screen&amp;nbsp;&lt;/i&gt;&lt;i style=&quot;background-color: transparent; color: light-dark(rgb(0, 0, 0), rgb(255, 255, 255));&quot;&gt;and take us through the solution design you have come up with. All questions&amp;nbsp;&lt;/i&gt;&lt;i style=&quot;background-color: transparent; color: light-dark(rgb(0, 0, 0), rgb(255, 255, 255));&quot;&gt;will be based on it.&lt;/i&gt;&lt;/p&gt;&lt;/div&gt;" style="text;html=1;align=left;verticalAlign=middle;whiteSpace=wrap;rounded=0;" parent="1" vertex="1">
          <mxGeometry x="420" y="510" width="500" height="190" as="geometry" />
        </mxCell>
        <mxCell id="uHJZRJn1Bud5fzUKYIxY-11" style="edgeStyle=orthogonalEdgeStyle;rounded=0;orthogonalLoop=1;jettySize=auto;html=1;exitX=1;exitY=0.5;exitDx=0;exitDy=0;entryX=0;entryY=0.5;entryDx=0;entryDy=0;" parent="1" source="uHJZRJn1Bud5fzUKYIxY-8" target="uHJZRJn1Bud5fzUKYIxY-10" edge="1">
          <mxGeometry relative="1" as="geometry" />
        </mxCell>
        <mxCell id="oo_KVRj11kOssmEsgrUC-13" value="Submit" style="edgeLabel;html=1;align=center;verticalAlign=middle;resizable=0;points=[];" vertex="1" connectable="0" parent="uHJZRJn1Bud5fzUKYIxY-11">
          <mxGeometry x="0.0089" y="1" relative="1" as="geometry">
            <mxPoint as="offset" />
          </mxGeometry>
        </mxCell>
        <mxCell id="uHJZRJn1Bud5fzUKYIxY-8" value="Preferences form webpage" style="rounded=1;whiteSpace=wrap;html=1;" parent="1" vertex="1">
          <mxGeometry x="937" y="255.81" width="180" height="90" as="geometry" />
        </mxCell>
        <mxCell id="uHJZRJn1Bud5fzUKYIxY-10" value="Success message" style="rounded=1;whiteSpace=wrap;html=1;" parent="1" vertex="1">
          <mxGeometry x="1230" y="255.81" width="180" height="90" as="geometry" />
        </mxCell>
        <mxCell id="uHJZRJn1Bud5fzUKYIxY-12" value="" style="shape=image;verticalLabelPosition=bottom;labelBackgroundColor=default;verticalAlign=top;aspect=fixed;imageAspect=0;image=data:image/png,iVBORw0KGgoAAAANSUhEUgAAARUAAAC2CAMAAADAz+kkAAAAb1BMVEX///8A3P8A2/8A2f/1/v/6//+79f/m/P/p/P8A3v/w/f+R7P8g3//F9f/5///u/f/f+v9s6P+v8v+n8f966v/Z+f9F4P9Z5f/B9f9V5P+d7/+H7P+28//U+P/N+P9z6f844/+g7f+D6P+X7P+D7f+pm44WAAARRUlEQVR4nO1d7cKiOA+VCgpS5VMQUWSeee//Gl/apl/QAuOOCrueH7uPCA4NbZImJ2Gz+eKLL75YKQ778/HSxP7piWv9+Jhds13s//W7+iyavHUQQVDlu8OfXOnFYYkRA06Or7rBD+BcIeQAiGSSizfzyuhaIHltd3EVv/RO34hMGRcMDl/nrKQ4dwaXOunL7/ctCHsDg9GFU/Nln/RFwq7M3nLXL0ZmGhqVy+jwDrlRJuTCy7tu/XWIFYWCkDZS1DbWy9JAO1O7Nvgjdb1IVDAWVOR1WD9aXXnm5gHGFVJFEpR1lmZ1wX/q8eYx/HU0MJLg5tLP7v5aOYpcsGk5ZOoZweMYscPejR9buyHiD11dK/eHoxjquq913USV2lV13S7sG5S/4c5fCB+GcdUPE5MrtYvust6x/Apnrn5hDd+9+LZfjCsbBR58EZdy7I66iqRz000jt3+Zi9lXu1fe9MvBFpDRxbhIK6NMpVyZQybtwZyfdS8hD6bK3vit9EhQwo64wvbYvJmzY5l8K8KRPdnK8nUjVAhqiYmO5efKLMjNhpnn7ZpdFqZWUGj7/iDMDerm012oYGTfDjzQ6hXLDxuC3YXt5MZdMyzcWRSM+PQ3ZDJqqwIzNMGY03UMpCoZU7McdyaVn799q+/DqaVDwKMxNF/6J0wo5cAeq4gDVT2vES4bQTEeS3FLVSxTRtfHbD7NjVstDyAVmwkSeCguvlUz898smFSeif8uAwemA8rJE6UpqqdO9ZhpxqPLbNGYK5WdsoJG7BUDc/SCf71UGlXZBueJs/8jUmFWRSiWYCLr89+QykE4b9ydGx9wtXa94jrTNshruablKnfi/NVr2zmWWcgiEyGlUZflUKzeX2ExomLkufJkEfVTuN8ytssBL65ar1S8SY8/5XJgfgr3cke2xOv3+Cd3h9wm80EKJWO3zyzstObdIcQbkW2IEWwM5Xo48CNWbdpMhGxWAIiy2vgVFRdBJA7xVKPVnGf2SPBakI2GiLjNcdS5dFTVrwH5ZCBr8YDpblaNO7NqFdl6c0AOsgaR8ct1AJzbwvSdD44+eriRLxEdwBAhY5LdK5g2fvGNvxZs5APT7LkHXyQ5WhwE5Lzuc/cHxpirlso/uH23hOkd1L7p/l8DGPpdHnGbLEwqPCAxGdCdgqtHmDWKPWpWH7bdCCN0ox/OaVgFAxbLlGQox7AMU6aSr+s3Qdx3RYm7C9s/E4dBOG24A6WzahO02eyRHNWTAtFFA399elz/ELMngsSMK9acZj7d62JKHE6A27aqyoShrKqW2KQp4RT1fZ1B/jgsHMPQlNmAknO87xwU9yTtr3dyD5G/j2MZ9jfzS50iXB0PzE2roe0l48NFGXJPH485qD53W+qwLLBBNt2BKl1TRM6v8ZCO3blr+e1OCBjAhZzgze74frr7e3+/PVpnMPUQwvVaKh7Oj+GcR1XacAcewm+T/NCkx6k7NFlrWJCPqVTJEhCXukxgaHKDuOffTM1+l58opwMEpfR/AJVLl4uvy4TUd8Bf4hQeVJnm5fA1JEIthy37sTzo/SvlkteRF6p324kk74YOrEeuRAZDHUHVU0DgKbebzUUXjIG1uxgcVSYKckpGx6511iM3LTbemwq+2LjTViqbIPdWqisJ4WUWVLlqkUZnHLg3AZx1iIgAAXdm3DXUFK4Lv8TVSFwrjwGhfIFm+lyoMsmkK8KJw/RZRizgYkhyeYfoMDwI6jWgPycXEEd0VeVSLE7rqpxirDtXD2UJ5WZXJUrzqsVtld968TeNuF8awvtuphDcg4UxK2VpFHKuvZnMl1B3+GxUtfsc9j0kklLrDi93WrppEMG/0ZsR7lWpCVhU3OUq7+sxcOMZZ4uGnhLTwK6a/9ErLAQaB5EjBJyGWWtfFoksiXGabsUcNoWDck7YuKvrgUPjChJstZQAbJpQw6P7pnE3Yv1uFzNbeArHluKAdePsK1V3AgZC6f3MAZR1Bb8SmE26mC7bhVhonsJwkKWo1oOn3BpmeT0USk+hcpXVjlOEhGab4kq9CVwhOtanlGnbFzWFfDQJpTtTSQqcWk3tWM0MJ3nP8ppfDm48g7v1lEhlvqkz6lRYpKLSU27qOSMcJ65cllDZ6/Fs19h6VmjGWsz1YotDakF8ZbKM8nGPBpF+CNyujJrERhmXqnwMqhbOUhXuTrl6NCrJtxP2Wfsu1DYvQoN83OpUEVHIIbDq5MpiqgmdAWp9kuD9cjDNYKWoAISF0KbKfSSQrzp6YrJMBWWOI9n+dyJij3uSI8AHq51oVSv9VYBNV5sA2f5P8zhiPGdmy5iA5tKkI1LRDAmYIfRr6p9higp/OieyB6Ln1Hn1P5IKV6OTCgOI23NCWq8EOOTBhDH0+Gi1XKjFhxuuIOHvTASWPFhBH69gBbU/oQaltr0pR89WoejUUnn1xN7vNssgvgFgmdvxpygsM1InS2S3zBqfW0yVCY6TWyzFMsPzHg/Eql6cOlkSqxenBhuUbj/jHgDfai4gUsnTE7eRc9TCQnWyWBWLqlY8ZUaNMtVTJQf7afB5MKJaDrbd4aYyi0Wz9HpjKLsrIpiqiyBCiUoNqyrsRRIU5snZMlkUh8PlDFT2X+t+iwtvIf2NXL5NsWk5HnWqnOHAriaxaNOJ18pAhN9WHC2Ki5ZSTyW2M6gyxsFEhBK2yBr91hCM0zQ3RPrQI4IvjRtiXxq5z2+YAXL3Zuz8V/ej2dqc6jfZQ/oi4W1qYjBYxkKzVDZZWFBKSLruBtoEBNzIskh6OVGKm9YoodcV7A5HcyH74Qo5K92QFtWP8SYfltOnH91llizmotNOOIS0KSljiPVybDBgEqIGtds3MX6u/Ntj7sEH0KiJzVDbh0A6iJoGvknszfNTE5Ytbstr09tPcV5H2P8hjqhWU7mLsMkqIsX10OeL2rbrwO9/Xmj1BLIOqOFpBkvIr9V+e2Zd/2FctV6KCX9uoBmgxVtmUrhW9OIPvSV0LLV/cUHJVBV7vXskvlJfrNfLjBcWzgkMxXBuC59VglB81Xia4w1+Potep1GnTfewXRaapOmNdAycHMhdENg24U2ctXrKPliU7enDrXsdWB3u0IpTeKpxOk3Od3tSvcLPtjrDGQXDJoQLg6YAHbF9kbY44t9MhZz5nlJJ1psiD8jJPx2QnIP9kJndzfp8twd7zRXuVPl6oqvag3/Lh8USCgFv6Yiy1kS7b5Nw57se98xGIzIqBdVz/V2dYBOVX2/0ungcS0NlIWvI//Pgn8dGJDL2jx9Wljf8MadcCFflD3BIW2MRi1IJU12a2KQnD3GzE3sb24+02adzYU8iSqvhgHpzB21J5RRuGTAOnO7IZElZm61Bw1phj+IbBDS7NnHldYce8AjxXyjHpG/6MO+bVwYgCZRefH20RqU5WyBBkWe+B/vmxTAln4JalO369+ujwsEfLRUqD1w9sjN7x87FEE1YHYZ9QaL4nuVlgfG0YBAuiqRO77FibNgOfOV9Etj+ztDCyN0L7x0zaH/RoSeGVzBx+u07bv5lYMrRyD3ysOL5e657iA6uS8QA+SWEjTkOCAKvxc03IaImyML54QmRXoqaZ4gsKQyI9C8sQPtHONqTFRsl23cbXGJPEoL+XmjgbRYmWlOJVxJIbXwWHXws1/wLGrBAdNKWzjuJJmBcTYheaVY+DPSLWwQt/UmwzvN2PsleCIEZX/7uBmRvvAe9BVfchxJU40jnedFckLHMRatOe4gA+FFLybE/ASAjjHWeF40oyZLIJzQtAeRnV9z1F0pMRzlzgmGRzOvkyumJH6dJPg1WtIuKUR0g+pRW6rSZOn/NUpnVj59TTwQtZ/x0kMqq4rUa5kmlVyw2pUf/I1LR3vSBLNWWEv8VqUCJBLO4k1zZcu3bw1nalkDwcWdwZVevbU8zLDNBrqygamq4q7fMM7y4Dif9TTnFuGKB/gIr9uKmPf4OkWaCnNES4I2oVVyxx8/fSzY2zLt8A5f4Y4yMcgYNvuLd4XTfVVn64zSSSTwSwm9GA1mrAMTirJwMV3uznydzy63VQAML7PdrbvgtgE5MNtOsvAWyogEWYYxQYJtf82rXlg1wz4yK5SRZUSgB5am0tymNOprzmFesbMV8N/FIj9L2KFH+i/L6w6thioGmal92x+8Ar+MeUE182awSOepyiBVhtYOQ3AmSZGsO8W8EcbhnMjSeeY8pe5LleAiVPfIBpyWvmr0ih6GmfGKVfmqwsanS1AtV6pW818sSKgv/CXg7MzHnfY1JaH6RrK92XEHBD19h4hVM66avbJS4rFP+ysIy2Grc+4elXi7TekwihKskEdJcdTKIwZM+SZ+3glr7M496rYPVaycDUyvAXXudoTLOIBvdy9wrC/dn3R4cx87Yar1XWmXCpTCSStfN/hI49nlNnZ4I58RdvWMZ9C8N1szR0LBP1JKvTu/uZkfSzqSrvxJrSNYbrx3iXGNgWeNk94fK8p6VsJ1qwwX0hfi72DeXy/H+JMv8cL7fz6veEX7xxRdffPHFF1988cUXf4b98Xa77RbTxsmOHS/xIVU+ZX75Byly4974t4N5Q9JLBQE6XC+9gnenRkNIzfGze9woN9YUhYgmpDckHCzzAMtr0aODSUUW4aLgueeYYnOXZxLkp1Kh0X7+z6Bg2QEGKpWCgQbgniubJHmBUan4VOb58X7OSehl4UF/IhWerHEzOlueUS3JlFQI6wVetEL5l8vmmVKpiOQwSY0+9SKFSankSOYPwy1C20WH/XWpEP4AS1P4Nd5uUSWi8+ek3XYHWtk75VeFttugJKHq4y9CCMS/fg2D+VwqRN6cbRdlaZotOpqrSyXkn1LQvVwt1lwZ88ZdR4cfaF3xli4DoZ9LhfI10O9Fy0JCkwptv070CtECzFwgWlbGP9OhES/s6MgzWl6ANiaVeMsTKMcVBHOpVH43R4KcGCFCiSP0JFTdvV13gNBxDuT/Zez6V4dl5ekBnHn+/8gV2e2HhvR/foZcIGGZRdEZcpIFvAJmHDvhRsBMILRYohppL0FiLrqZdK5wwHoLloiK7Rc5la6tnFzG1Ma4v+LJ1nQIFavw4uT9VntWKAgMWiIfQleJ9tQ/9R6Iuhot4jTLc1WH99O0DequVVpqLa4pZw9irpCbxTV9hrTfA9OyKRI1Ue4h+ymYA0berasTj2dIpbNrSlZx2SwFpleOF7rsMXuClHOb/BAQPi3p++DtEryFNVbSCmWdvj1LKh3iC/TUWjYpWdggWpHLqJNHRdd0f229zZ1OfiEV0v/2Oal0OO0oL2ryZTGfhLTM9N0S1BthUtkKHKKA2ugyO/8PzZNK1FxSqp65VA7NRZJfiFi27xjds1D8FcqEJBVfVCrq86X7XapHciqVvXCBOXpSIT49e6EJ+VEcba5k+QkXjtjz7ZKLHRSpHDDzyRibuvfyNdhKJ8wGYbG39nGZXP3+nvk34m8xJJcW3qbZqqqEa6vFQvVtKQuUEJMKxLf6ZZmHZyoEaohJAR75hrj4rN5nR5TPuS+VC4JyBg/8QsbiBbN1XXwoQfP46X4miJiDH3ob70p65l1ZfcIRmgST8VAjRF7dfsaMSxsyMfHwwIna3zC+EA1Cmbusfqa8nc9pSfX6ov04TSq0a0i3NKgfioqkgCXFWiOUYFSJ/0K3kUHCXll+B1VdlGIfVEs3CMqlKmnYno5tvQ36npmtoeNmX3BDjGgJIh+SUwcQMMrZEQdecxDDbpH/kPTvOb3dVVpmo8mesB+GLpVNTm66dTduDY3fHtSSuAn91N43pE0ljaLcMHvwFVsKKWsqJwzLCX4A5YJQl7Z8310tfntow6lJ07QRu/74lqa9RM69O3QRBtztPh3VsKNHfkAPG8THlPzoooOTX3zxxRdffPHFF1+8Ef8HiaLEkg69+7oAAAAASUVORK5CYII=;" parent="1" vertex="1">
          <mxGeometry x="100" y="235.81" width="67" height="44.02" as="geometry" />
        </mxCell>
        <mxCell id="uHJZRJn1Bud5fzUKYIxY-13" value="" style="shape=image;verticalLabelPosition=bottom;labelBackgroundColor=default;verticalAlign=top;aspect=fixed;imageAspect=0;image=data:image/png,iVBORw0KGgoAAAANSUhEUgAAARUAAAC2CAMAAADAz+kkAAAAb1BMVEX///8A3P8A2/8A2f/1/v/6//+79f/m/P/p/P8A3v/w/f+R7P8g3//F9f/5///u/f/f+v9s6P+v8v+n8f966v/Z+f9F4P9Z5f/B9f9V5P+d7/+H7P+28//U+P/N+P9z6f844/+g7f+D6P+X7P+D7f+pm44WAAARRUlEQVR4nO1d7cKiOA+VCgpS5VMQUWSeee//Gl/apl/QAuOOCrueH7uPCA4NbZImJ2Gz+eKLL75YKQ778/HSxP7piWv9+Jhds13s//W7+iyavHUQQVDlu8OfXOnFYYkRA06Or7rBD+BcIeQAiGSSizfzyuhaIHltd3EVv/RO34hMGRcMDl/nrKQ4dwaXOunL7/ctCHsDg9GFU/Nln/RFwq7M3nLXL0ZmGhqVy+jwDrlRJuTCy7tu/XWIFYWCkDZS1DbWy9JAO1O7Nvgjdb1IVDAWVOR1WD9aXXnm5gHGFVJFEpR1lmZ1wX/q8eYx/HU0MJLg5tLP7v5aOYpcsGk5ZOoZweMYscPejR9buyHiD11dK/eHoxjquq913USV2lV13S7sG5S/4c5fCB+GcdUPE5MrtYvust6x/Apnrn5hDd+9+LZfjCsbBR58EZdy7I66iqRz000jt3+Zi9lXu1fe9MvBFpDRxbhIK6NMpVyZQybtwZyfdS8hD6bK3vit9EhQwo64wvbYvJmzY5l8K8KRPdnK8nUjVAhqiYmO5efKLMjNhpnn7ZpdFqZWUGj7/iDMDerm012oYGTfDjzQ6hXLDxuC3YXt5MZdMyzcWRSM+PQ3ZDJqqwIzNMGY03UMpCoZU7McdyaVn799q+/DqaVDwKMxNF/6J0wo5cAeq4gDVT2vES4bQTEeS3FLVSxTRtfHbD7NjVstDyAVmwkSeCguvlUz898smFSeif8uAwemA8rJE6UpqqdO9ZhpxqPLbNGYK5WdsoJG7BUDc/SCf71UGlXZBueJs/8jUmFWRSiWYCLr89+QykE4b9ydGx9wtXa94jrTNshruablKnfi/NVr2zmWWcgiEyGlUZflUKzeX2ExomLkufJkEfVTuN8ytssBL65ar1S8SY8/5XJgfgr3cke2xOv3+Cd3h9wm80EKJWO3zyzstObdIcQbkW2IEWwM5Xo48CNWbdpMhGxWAIiy2vgVFRdBJA7xVKPVnGf2SPBakI2GiLjNcdS5dFTVrwH5ZCBr8YDpblaNO7NqFdl6c0AOsgaR8ct1AJzbwvSdD44+eriRLxEdwBAhY5LdK5g2fvGNvxZs5APT7LkHXyQ5WhwE5Lzuc/cHxpirlso/uH23hOkd1L7p/l8DGPpdHnGbLEwqPCAxGdCdgqtHmDWKPWpWH7bdCCN0ox/OaVgFAxbLlGQox7AMU6aSr+s3Qdx3RYm7C9s/E4dBOG24A6WzahO02eyRHNWTAtFFA399elz/ELMngsSMK9acZj7d62JKHE6A27aqyoShrKqW2KQp4RT1fZ1B/jgsHMPQlNmAknO87xwU9yTtr3dyD5G/j2MZ9jfzS50iXB0PzE2roe0l48NFGXJPH485qD53W+qwLLBBNt2BKl1TRM6v8ZCO3blr+e1OCBjAhZzgze74frr7e3+/PVpnMPUQwvVaKh7Oj+GcR1XacAcewm+T/NCkx6k7NFlrWJCPqVTJEhCXukxgaHKDuOffTM1+l58opwMEpfR/AJVLl4uvy4TUd8Bf4hQeVJnm5fA1JEIthy37sTzo/SvlkteRF6p324kk74YOrEeuRAZDHUHVU0DgKbebzUUXjIG1uxgcVSYKckpGx6511iM3LTbemwq+2LjTViqbIPdWqisJ4WUWVLlqkUZnHLg3AZx1iIgAAXdm3DXUFK4Lv8TVSFwrjwGhfIFm+lyoMsmkK8KJw/RZRizgYkhyeYfoMDwI6jWgPycXEEd0VeVSLE7rqpxirDtXD2UJ5WZXJUrzqsVtld968TeNuF8awvtuphDcg4UxK2VpFHKuvZnMl1B3+GxUtfsc9j0kklLrDi93WrppEMG/0ZsR7lWpCVhU3OUq7+sxcOMZZ4uGnhLTwK6a/9ErLAQaB5EjBJyGWWtfFoksiXGabsUcNoWDck7YuKvrgUPjChJstZQAbJpQw6P7pnE3Yv1uFzNbeArHluKAdePsK1V3AgZC6f3MAZR1Bb8SmE26mC7bhVhonsJwkKWo1oOn3BpmeT0USk+hcpXVjlOEhGab4kq9CVwhOtanlGnbFzWFfDQJpTtTSQqcWk3tWM0MJ3nP8ppfDm48g7v1lEhlvqkz6lRYpKLSU27qOSMcJ65cllDZ6/Fs19h6VmjGWsz1YotDakF8ZbKM8nGPBpF+CNyujJrERhmXqnwMqhbOUhXuTrl6NCrJtxP2Wfsu1DYvQoN83OpUEVHIIbDq5MpiqgmdAWp9kuD9cjDNYKWoAISF0KbKfSSQrzp6YrJMBWWOI9n+dyJij3uSI8AHq51oVSv9VYBNV5sA2f5P8zhiPGdmy5iA5tKkI1LRDAmYIfRr6p9higp/OieyB6Ln1Hn1P5IKV6OTCgOI23NCWq8EOOTBhDH0+Gi1XKjFhxuuIOHvTASWPFhBH69gBbU/oQaltr0pR89WoejUUnn1xN7vNssgvgFgmdvxpygsM1InS2S3zBqfW0yVCY6TWyzFMsPzHg/Eql6cOlkSqxenBhuUbj/jHgDfai4gUsnTE7eRc9TCQnWyWBWLqlY8ZUaNMtVTJQf7afB5MKJaDrbd4aYyi0Wz9HpjKLsrIpiqiyBCiUoNqyrsRRIU5snZMlkUh8PlDFT2X+t+iwtvIf2NXL5NsWk5HnWqnOHAriaxaNOJ18pAhN9WHC2Ki5ZSTyW2M6gyxsFEhBK2yBr91hCM0zQ3RPrQI4IvjRtiXxq5z2+YAXL3Zuz8V/ej2dqc6jfZQ/oi4W1qYjBYxkKzVDZZWFBKSLruBtoEBNzIskh6OVGKm9YoodcV7A5HcyH74Qo5K92QFtWP8SYfltOnH91llizmotNOOIS0KSljiPVybDBgEqIGtds3MX6u/Ntj7sEH0KiJzVDbh0A6iJoGvknszfNTE5Ytbstr09tPcV5H2P8hjqhWU7mLsMkqIsX10OeL2rbrwO9/Xmj1BLIOqOFpBkvIr9V+e2Zd/2FctV6KCX9uoBmgxVtmUrhW9OIPvSV0LLV/cUHJVBV7vXskvlJfrNfLjBcWzgkMxXBuC59VglB81Xia4w1+Potep1GnTfewXRaapOmNdAycHMhdENg24U2ctXrKPliU7enDrXsdWB3u0IpTeKpxOk3Od3tSvcLPtjrDGQXDJoQLg6YAHbF9kbY44t9MhZz5nlJJ1psiD8jJPx2QnIP9kJndzfp8twd7zRXuVPl6oqvag3/Lh8USCgFv6Yiy1kS7b5Nw57se98xGIzIqBdVz/V2dYBOVX2/0ungcS0NlIWvI//Pgn8dGJDL2jx9Wljf8MadcCFflD3BIW2MRi1IJU12a2KQnD3GzE3sb24+02adzYU8iSqvhgHpzB21J5RRuGTAOnO7IZElZm61Bw1phj+IbBDS7NnHldYce8AjxXyjHpG/6MO+bVwYgCZRefH20RqU5WyBBkWe+B/vmxTAln4JalO369+ujwsEfLRUqD1w9sjN7x87FEE1YHYZ9QaL4nuVlgfG0YBAuiqRO77FibNgOfOV9Etj+ztDCyN0L7x0zaH/RoSeGVzBx+u07bv5lYMrRyD3ysOL5e657iA6uS8QA+SWEjTkOCAKvxc03IaImyML54QmRXoqaZ4gsKQyI9C8sQPtHONqTFRsl23cbXGJPEoL+XmjgbRYmWlOJVxJIbXwWHXws1/wLGrBAdNKWzjuJJmBcTYheaVY+DPSLWwQt/UmwzvN2PsleCIEZX/7uBmRvvAe9BVfchxJU40jnedFckLHMRatOe4gA+FFLybE/ASAjjHWeF40oyZLIJzQtAeRnV9z1F0pMRzlzgmGRzOvkyumJH6dJPg1WtIuKUR0g+pRW6rSZOn/NUpnVj59TTwQtZ/x0kMqq4rUa5kmlVyw2pUf/I1LR3vSBLNWWEv8VqUCJBLO4k1zZcu3bw1nalkDwcWdwZVevbU8zLDNBrqygamq4q7fMM7y4Dif9TTnFuGKB/gIr9uKmPf4OkWaCnNES4I2oVVyxx8/fSzY2zLt8A5f4Y4yMcgYNvuLd4XTfVVn64zSSSTwSwm9GA1mrAMTirJwMV3uznydzy63VQAML7PdrbvgtgE5MNtOsvAWyogEWYYxQYJtf82rXlg1wz4yK5SRZUSgB5am0tymNOprzmFesbMV8N/FIj9L2KFH+i/L6w6thioGmal92x+8Ar+MeUE182awSOepyiBVhtYOQ3AmSZGsO8W8EcbhnMjSeeY8pe5LleAiVPfIBpyWvmr0ih6GmfGKVfmqwsanS1AtV6pW818sSKgv/CXg7MzHnfY1JaH6RrK92XEHBD19h4hVM66avbJS4rFP+ysIy2Grc+4elXi7TekwihKskEdJcdTKIwZM+SZ+3glr7M496rYPVaycDUyvAXXudoTLOIBvdy9wrC/dn3R4cx87Yar1XWmXCpTCSStfN/hI49nlNnZ4I58RdvWMZ9C8N1szR0LBP1JKvTu/uZkfSzqSrvxJrSNYbrx3iXGNgWeNk94fK8p6VsJ1qwwX0hfi72DeXy/H+JMv8cL7fz6veEX7xxRdffPHFF1988cUXf4b98Xa77RbTxsmOHS/xIVU+ZX75Byly4974t4N5Q9JLBQE6XC+9gnenRkNIzfGze9woN9YUhYgmpDckHCzzAMtr0aODSUUW4aLgueeYYnOXZxLkp1Kh0X7+z6Bg2QEGKpWCgQbgniubJHmBUan4VOb58X7OSehl4UF/IhWerHEzOlueUS3JlFQI6wVetEL5l8vmmVKpiOQwSY0+9SKFSankSOYPwy1C20WH/XWpEP4AS1P4Nd5uUSWi8+ek3XYHWtk75VeFttugJKHq4y9CCMS/fg2D+VwqRN6cbRdlaZotOpqrSyXkn1LQvVwt1lwZ88ZdR4cfaF3xli4DoZ9LhfI10O9Fy0JCkwptv070CtECzFwgWlbGP9OhES/s6MgzWl6ANiaVeMsTKMcVBHOpVH43R4KcGCFCiSP0JFTdvV13gNBxDuT/Zez6V4dl5ekBnHn+/8gV2e2HhvR/foZcIGGZRdEZcpIFvAJmHDvhRsBMILRYohppL0FiLrqZdK5wwHoLloiK7Rc5la6tnFzG1Ma4v+LJ1nQIFavw4uT9VntWKAgMWiIfQleJ9tQ/9R6Iuhot4jTLc1WH99O0DequVVpqLa4pZw9irpCbxTV9hrTfA9OyKRI1Ue4h+ymYA0berasTj2dIpbNrSlZx2SwFpleOF7rsMXuClHOb/BAQPi3p++DtEryFNVbSCmWdvj1LKh3iC/TUWjYpWdggWpHLqJNHRdd0f229zZ1OfiEV0v/2Oal0OO0oL2ryZTGfhLTM9N0S1BthUtkKHKKA2ugyO/8PzZNK1FxSqp65VA7NRZJfiFi27xjds1D8FcqEJBVfVCrq86X7XapHciqVvXCBOXpSIT49e6EJ+VEcba5k+QkXjtjz7ZKLHRSpHDDzyRibuvfyNdhKJ8wGYbG39nGZXP3+nvk34m8xJJcW3qbZqqqEa6vFQvVtKQuUEJMKxLf6ZZmHZyoEaohJAR75hrj4rN5nR5TPuS+VC4JyBg/8QsbiBbN1XXwoQfP46X4miJiDH3ob70p65l1ZfcIRmgST8VAjRF7dfsaMSxsyMfHwwIna3zC+EA1Cmbusfqa8nc9pSfX6ov04TSq0a0i3NKgfioqkgCXFWiOUYFSJ/0K3kUHCXll+B1VdlGIfVEs3CMqlKmnYno5tvQ36npmtoeNmX3BDjGgJIh+SUwcQMMrZEQdecxDDbpH/kPTvOb3dVVpmo8mesB+GLpVNTm66dTduDY3fHtSSuAn91N43pE0ljaLcMHvwFVsKKWsqJwzLCX4A5YJQl7Z8310tfntow6lJ07QRu/74lqa9RM69O3QRBtztPh3VsKNHfkAPG8THlPzoooOTX3zxxRdffPHFF1+8Ef8HiaLEkg69+7oAAAAASUVORK5CYII=;" parent="1" vertex="1">
          <mxGeometry x="920" y="237.8" width="67" height="44.02" as="geometry" />
        </mxCell>
        <mxCell id="uHJZRJn1Bud5fzUKYIxY-16" style="edgeStyle=orthogonalEdgeStyle;rounded=0;orthogonalLoop=1;jettySize=auto;html=1;exitX=1;exitY=0.5;exitDx=0;exitDy=0;entryX=0;entryY=0.5;entryDx=0;entryDy=0;" parent="1" source="uHJZRJn1Bud5fzUKYIxY-14" target="uHJZRJn1Bud5fzUKYIxY-4" edge="1">
          <mxGeometry relative="1" as="geometry" />
        </mxCell>
        <mxCell id="oo_KVRj11kOssmEsgrUC-11" value="POST" style="edgeLabel;html=1;align=center;verticalAlign=middle;resizable=0;points=[];" vertex="1" connectable="0" parent="uHJZRJn1Bud5fzUKYIxY-16">
          <mxGeometry x="-0.0179" y="-3" relative="1" as="geometry">
            <mxPoint as="offset" />
          </mxGeometry>
        </mxCell>
        <mxCell id="uHJZRJn1Bud5fzUKYIxY-14" value="Notification email sent via Flask API POST request" style="rounded=1;whiteSpace=wrap;html=1;" parent="1" vertex="1">
          <mxGeometry x="390" y="255.81" width="180" height="90" as="geometry" />
        </mxCell>
        <mxCell id="uHJZRJn1Bud5fzUKYIxY-17" value="" style="shape=image;html=1;verticalAlign=top;verticalLabelPosition=bottom;labelBackgroundColor=#ffffff;imageAspect=0;aspect=fixed;image=https://cdn1.iconfinder.com/data/icons/bootstrap-vol-3/16/filetype-html-128.png" parent="1" vertex="1">
          <mxGeometry x="630" y="233.82" width="48" height="48" as="geometry" />
        </mxCell>
        <mxCell id="uHJZRJn1Bud5fzUKYIxY-18" value="" style="shape=image;html=1;verticalAlign=top;verticalLabelPosition=bottom;labelBackgroundColor=#ffffff;imageAspect=0;aspect=fixed;image=https://cdn0.iconfinder.com/data/icons/communication-technology/500/code_brackets-128.png" parent="1" vertex="1">
          <mxGeometry x="670" y="228.82" width="58" height="58" as="geometry" />
        </mxCell>
        <mxCell id="uHJZRJn1Bud5fzUKYIxY-19" value="" style="shape=image;verticalLabelPosition=bottom;labelBackgroundColor=default;verticalAlign=top;aspect=fixed;imageAspect=0;image=data:image/png,iVBORw0KGgoAAAANSUhEUgAAARUAAAC2CAMAAADAz+kkAAAAb1BMVEX///8A3P8A2/8A2f/1/v/6//+79f/m/P/p/P8A3v/w/f+R7P8g3//F9f/5///u/f/f+v9s6P+v8v+n8f966v/Z+f9F4P9Z5f/B9f9V5P+d7/+H7P+28//U+P/N+P9z6f844/+g7f+D6P+X7P+D7f+pm44WAAARRUlEQVR4nO1d7cKiOA+VCgpS5VMQUWSeee//Gl/apl/QAuOOCrueH7uPCA4NbZImJ2Gz+eKLL75YKQ778/HSxP7piWv9+Jhds13s//W7+iyavHUQQVDlu8OfXOnFYYkRA06Or7rBD+BcIeQAiGSSizfzyuhaIHltd3EVv/RO34hMGRcMDl/nrKQ4dwaXOunL7/ctCHsDg9GFU/Nln/RFwq7M3nLXL0ZmGhqVy+jwDrlRJuTCy7tu/XWIFYWCkDZS1DbWy9JAO1O7Nvgjdb1IVDAWVOR1WD9aXXnm5gHGFVJFEpR1lmZ1wX/q8eYx/HU0MJLg5tLP7v5aOYpcsGk5ZOoZweMYscPejR9buyHiD11dK/eHoxjquq913USV2lV13S7sG5S/4c5fCB+GcdUPE5MrtYvust6x/Apnrn5hDd+9+LZfjCsbBR58EZdy7I66iqRz000jt3+Zi9lXu1fe9MvBFpDRxbhIK6NMpVyZQybtwZyfdS8hD6bK3vit9EhQwo64wvbYvJmzY5l8K8KRPdnK8nUjVAhqiYmO5efKLMjNhpnn7ZpdFqZWUGj7/iDMDerm012oYGTfDjzQ6hXLDxuC3YXt5MZdMyzcWRSM+PQ3ZDJqqwIzNMGY03UMpCoZU7McdyaVn799q+/DqaVDwKMxNF/6J0wo5cAeq4gDVT2vES4bQTEeS3FLVSxTRtfHbD7NjVstDyAVmwkSeCguvlUz898smFSeif8uAwemA8rJE6UpqqdO9ZhpxqPLbNGYK5WdsoJG7BUDc/SCf71UGlXZBueJs/8jUmFWRSiWYCLr89+QykE4b9ydGx9wtXa94jrTNshruablKnfi/NVr2zmWWcgiEyGlUZflUKzeX2ExomLkufJkEfVTuN8ytssBL65ar1S8SY8/5XJgfgr3cke2xOv3+Cd3h9wm80EKJWO3zyzstObdIcQbkW2IEWwM5Xo48CNWbdpMhGxWAIiy2vgVFRdBJA7xVKPVnGf2SPBakI2GiLjNcdS5dFTVrwH5ZCBr8YDpblaNO7NqFdl6c0AOsgaR8ct1AJzbwvSdD44+eriRLxEdwBAhY5LdK5g2fvGNvxZs5APT7LkHXyQ5WhwE5Lzuc/cHxpirlso/uH23hOkd1L7p/l8DGPpdHnGbLEwqPCAxGdCdgqtHmDWKPWpWH7bdCCN0ox/OaVgFAxbLlGQox7AMU6aSr+s3Qdx3RYm7C9s/E4dBOG24A6WzahO02eyRHNWTAtFFA399elz/ELMngsSMK9acZj7d62JKHE6A27aqyoShrKqW2KQp4RT1fZ1B/jgsHMPQlNmAknO87xwU9yTtr3dyD5G/j2MZ9jfzS50iXB0PzE2roe0l48NFGXJPH485qD53W+qwLLBBNt2BKl1TRM6v8ZCO3blr+e1OCBjAhZzgze74frr7e3+/PVpnMPUQwvVaKh7Oj+GcR1XacAcewm+T/NCkx6k7NFlrWJCPqVTJEhCXukxgaHKDuOffTM1+l58opwMEpfR/AJVLl4uvy4TUd8Bf4hQeVJnm5fA1JEIthy37sTzo/SvlkteRF6p324kk74YOrEeuRAZDHUHVU0DgKbebzUUXjIG1uxgcVSYKckpGx6511iM3LTbemwq+2LjTViqbIPdWqisJ4WUWVLlqkUZnHLg3AZx1iIgAAXdm3DXUFK4Lv8TVSFwrjwGhfIFm+lyoMsmkK8KJw/RZRizgYkhyeYfoMDwI6jWgPycXEEd0VeVSLE7rqpxirDtXD2UJ5WZXJUrzqsVtld968TeNuF8awvtuphDcg4UxK2VpFHKuvZnMl1B3+GxUtfsc9j0kklLrDi93WrppEMG/0ZsR7lWpCVhU3OUq7+sxcOMZZ4uGnhLTwK6a/9ErLAQaB5EjBJyGWWtfFoksiXGabsUcNoWDck7YuKvrgUPjChJstZQAbJpQw6P7pnE3Yv1uFzNbeArHluKAdePsK1V3AgZC6f3MAZR1Bb8SmE26mC7bhVhonsJwkKWo1oOn3BpmeT0USk+hcpXVjlOEhGab4kq9CVwhOtanlGnbFzWFfDQJpTtTSQqcWk3tWM0MJ3nP8ppfDm48g7v1lEhlvqkz6lRYpKLSU27qOSMcJ65cllDZ6/Fs19h6VmjGWsz1YotDakF8ZbKM8nGPBpF+CNyujJrERhmXqnwMqhbOUhXuTrl6NCrJtxP2Wfsu1DYvQoN83OpUEVHIIbDq5MpiqgmdAWp9kuD9cjDNYKWoAISF0KbKfSSQrzp6YrJMBWWOI9n+dyJij3uSI8AHq51oVSv9VYBNV5sA2f5P8zhiPGdmy5iA5tKkI1LRDAmYIfRr6p9higp/OieyB6Ln1Hn1P5IKV6OTCgOI23NCWq8EOOTBhDH0+Gi1XKjFhxuuIOHvTASWPFhBH69gBbU/oQaltr0pR89WoejUUnn1xN7vNssgvgFgmdvxpygsM1InS2S3zBqfW0yVCY6TWyzFMsPzHg/Eql6cOlkSqxenBhuUbj/jHgDfai4gUsnTE7eRc9TCQnWyWBWLqlY8ZUaNMtVTJQf7afB5MKJaDrbd4aYyi0Wz9HpjKLsrIpiqiyBCiUoNqyrsRRIU5snZMlkUh8PlDFT2X+t+iwtvIf2NXL5NsWk5HnWqnOHAriaxaNOJ18pAhN9WHC2Ki5ZSTyW2M6gyxsFEhBK2yBr91hCM0zQ3RPrQI4IvjRtiXxq5z2+YAXL3Zuz8V/ej2dqc6jfZQ/oi4W1qYjBYxkKzVDZZWFBKSLruBtoEBNzIskh6OVGKm9YoodcV7A5HcyH74Qo5K92QFtWP8SYfltOnH91llizmotNOOIS0KSljiPVybDBgEqIGtds3MX6u/Ntj7sEH0KiJzVDbh0A6iJoGvknszfNTE5Ytbstr09tPcV5H2P8hjqhWU7mLsMkqIsX10OeL2rbrwO9/Xmj1BLIOqOFpBkvIr9V+e2Zd/2FctV6KCX9uoBmgxVtmUrhW9OIPvSV0LLV/cUHJVBV7vXskvlJfrNfLjBcWzgkMxXBuC59VglB81Xia4w1+Potep1GnTfewXRaapOmNdAycHMhdENg24U2ctXrKPliU7enDrXsdWB3u0IpTeKpxOk3Od3tSvcLPtjrDGQXDJoQLg6YAHbF9kbY44t9MhZz5nlJJ1psiD8jJPx2QnIP9kJndzfp8twd7zRXuVPl6oqvag3/Lh8USCgFv6Yiy1kS7b5Nw57se98xGIzIqBdVz/V2dYBOVX2/0ungcS0NlIWvI//Pgn8dGJDL2jx9Wljf8MadcCFflD3BIW2MRi1IJU12a2KQnD3GzE3sb24+02adzYU8iSqvhgHpzB21J5RRuGTAOnO7IZElZm61Bw1phj+IbBDS7NnHldYce8AjxXyjHpG/6MO+bVwYgCZRefH20RqU5WyBBkWe+B/vmxTAln4JalO369+ujwsEfLRUqD1w9sjN7x87FEE1YHYZ9QaL4nuVlgfG0YBAuiqRO77FibNgOfOV9Etj+ztDCyN0L7x0zaH/RoSeGVzBx+u07bv5lYMrRyD3ysOL5e657iA6uS8QA+SWEjTkOCAKvxc03IaImyML54QmRXoqaZ4gsKQyI9C8sQPtHONqTFRsl23cbXGJPEoL+XmjgbRYmWlOJVxJIbXwWHXws1/wLGrBAdNKWzjuJJmBcTYheaVY+DPSLWwQt/UmwzvN2PsleCIEZX/7uBmRvvAe9BVfchxJU40jnedFckLHMRatOe4gA+FFLybE/ASAjjHWeF40oyZLIJzQtAeRnV9z1F0pMRzlzgmGRzOvkyumJH6dJPg1WtIuKUR0g+pRW6rSZOn/NUpnVj59TTwQtZ/x0kMqq4rUa5kmlVyw2pUf/I1LR3vSBLNWWEv8VqUCJBLO4k1zZcu3bw1nalkDwcWdwZVevbU8zLDNBrqygamq4q7fMM7y4Dif9TTnFuGKB/gIr9uKmPf4OkWaCnNES4I2oVVyxx8/fSzY2zLt8A5f4Y4yMcgYNvuLd4XTfVVn64zSSSTwSwm9GA1mrAMTirJwMV3uznydzy63VQAML7PdrbvgtgE5MNtOsvAWyogEWYYxQYJtf82rXlg1wz4yK5SRZUSgB5am0tymNOprzmFesbMV8N/FIj9L2KFH+i/L6w6thioGmal92x+8Ar+MeUE182awSOepyiBVhtYOQ3AmSZGsO8W8EcbhnMjSeeY8pe5LleAiVPfIBpyWvmr0ih6GmfGKVfmqwsanS1AtV6pW818sSKgv/CXg7MzHnfY1JaH6RrK92XEHBD19h4hVM66avbJS4rFP+ysIy2Grc+4elXi7TekwihKskEdJcdTKIwZM+SZ+3glr7M496rYPVaycDUyvAXXudoTLOIBvdy9wrC/dn3R4cx87Yar1XWmXCpTCSStfN/hI49nlNnZ4I58RdvWMZ9C8N1szR0LBP1JKvTu/uZkfSzqSrvxJrSNYbrx3iXGNgWeNk94fK8p6VsJ1qwwX0hfi72DeXy/H+JMv8cL7fz6veEX7xxRdffPHFF1988cUXf4b98Xa77RbTxsmOHS/xIVU+ZX75Byly4974t4N5Q9JLBQE6XC+9gnenRkNIzfGze9woN9YUhYgmpDckHCzzAMtr0aODSUUW4aLgueeYYnOXZxLkp1Kh0X7+z6Bg2QEGKpWCgQbgniubJHmBUan4VOb58X7OSehl4UF/IhWerHEzOlueUS3JlFQI6wVetEL5l8vmmVKpiOQwSY0+9SKFSankSOYPwy1C20WH/XWpEP4AS1P4Nd5uUSWi8+ek3XYHWtk75VeFttugJKHq4y9CCMS/fg2D+VwqRN6cbRdlaZotOpqrSyXkn1LQvVwt1lwZ88ZdR4cfaF3xli4DoZ9LhfI10O9Fy0JCkwptv070CtECzFwgWlbGP9OhES/s6MgzWl6ANiaVeMsTKMcVBHOpVH43R4KcGCFCiSP0JFTdvV13gNBxDuT/Zez6V4dl5ekBnHn+/8gV2e2HhvR/foZcIGGZRdEZcpIFvAJmHDvhRsBMILRYohppL0FiLrqZdK5wwHoLloiK7Rc5la6tnFzG1Ma4v+LJ1nQIFavw4uT9VntWKAgMWiIfQleJ9tQ/9R6Iuhot4jTLc1WH99O0DequVVpqLa4pZw9irpCbxTV9hrTfA9OyKRI1Ue4h+ymYA0berasTj2dIpbNrSlZx2SwFpleOF7rsMXuClHOb/BAQPi3p++DtEryFNVbSCmWdvj1LKh3iC/TUWjYpWdggWpHLqJNHRdd0f229zZ1OfiEV0v/2Oal0OO0oL2ryZTGfhLTM9N0S1BthUtkKHKKA2ugyO/8PzZNK1FxSqp65VA7NRZJfiFi27xjds1D8FcqEJBVfVCrq86X7XapHciqVvXCBOXpSIT49e6EJ+VEcba5k+QkXjtjz7ZKLHRSpHDDzyRibuvfyNdhKJ8wGYbG39nGZXP3+nvk34m8xJJcW3qbZqqqEa6vFQvVtKQuUEJMKxLf6ZZmHZyoEaohJAR75hrj4rN5nR5TPuS+VC4JyBg/8QsbiBbN1XXwoQfP46X4miJiDH3ob70p65l1ZfcIRmgST8VAjRF7dfsaMSxsyMfHwwIna3zC+EA1Cmbusfqa8nc9pSfX6ov04TSq0a0i3NKgfioqkgCXFWiOUYFSJ/0K3kUHCXll+B1VdlGIfVEs3CMqlKmnYno5tvQ36npmtoeNmX3BDjGgJIh+SUwcQMMrZEQdecxDDbpH/kPTvOb3dVVpmo8mesB+GLpVNTm66dTduDY3fHtSSuAn91N43pE0ljaLcMHvwFVsKKWsqJwzLCX4A5YJQl7Z8310tfntow6lJ07QRu/74lqa9RM69O3QRBtztPh3VsKNHfkAPG8THlPzoooOTX3zxxRdffPHFF1+8Ef8HiaLEkg69+7oAAAAASUVORK5CYII=;" parent="1" vertex="1">
          <mxGeometry x="1210" y="242.8" width="67" height="44.02" as="geometry" />
        </mxCell>
        <mxCell id="uHJZRJn1Bud5fzUKYIxY-20" value="" style="shape=image;verticalLabelPosition=bottom;labelBackgroundColor=default;verticalAlign=top;aspect=fixed;imageAspect=0;image=data:image/png,iVBORw0KGgoAAAANSUhEUgAAAMYAAAD/CAMAAACdMFkKAAAAe1BMVEX///8AAACSkpLHx8e7u7sLCwv19fXg4ODp6en7+/v5+fns7Ozw8PBmZmbNzc3Z2dnV1dWIiIjQ0NB1dXU9PT1sbGxSUlJbW1udnZ1JSUmrq6tgYGChoaEfHx97e3u3t7csLCw0NDRNTU0ZGRmHh4coKCg7OzsWFhYzMzPAGFf4AAAXVklEQVR4nO1daXuqPBMmAQWVRWURWdW69P//wjeTBRII2D6nCn2vzodzWqrt3Elmn4yGoaXsgk6PMND/8LeQg1BK/qvQdWpO/ok+KArDSFA9MSf/QjZC7IsARdNy8k8UoHhlmVvHzQSe30nIqxCjx9Ss/AthlHEY8dSs/BOVHzcGw5yak38il2/GrxYNIO//AwbHYU/Nxr+STWGcfjuOgEtHmeTJvST/V+upWfovlBAIRyTTYWqW/gOFhO8wJ//cTMe+UhiLqXn6Nq2SZg92zja7068uU3P1XdojHRVTs/VNwloUvy34yPUoiIxvpmbtG5R2uc9aXHn9a5BcuzDIM7Nqv71Umb+cmskv0KUDg21AvZCfRdbETD4nvwMj5c8T5ensI5GlzG2OF4geIefREZrZhyKC0c+UOoZRpDwVNHf96zA2sRNkGBf13mTeVNyBcazn7f2yOLzKPlqWT3vDOINAZPvtXSM2M6R19/QI5VSw1T8rT+eqsZYnHQavZqZi2bOO+WpihnW06dlw9NjVbUp6vXZ6L5iZylriruFDi8py2Q+vXDFVhtnDcfSnY7pHVpe70HJdM8PXXUEFnOG4omVXZdFDh52J2eek2u4ytR3JJUQ1cd7p0SJRoayqokNc7XZ4V3nH4yyk/VNGUdj4AykUkXAWXia+DQvsqzkGAjTcT8K6RI0HkkSaM8Po04bNOGATDpDDt8fa8t9AM0KL1J0OAxBlNPfX2SAKQoessdyg0ohmQ00lx+avyScttaWgcexesCEdq1ThD15pGXH7rG5eeZkSyDKrFoMY8robKZlEmAIbtw/O0svDt3Iu0Xo3vA8VGDgbH0o4/ENSXLSvvxTJRMnfQYngR2n7gVLfup93Qyhkq1O6xuY0xcFKtBBOV4vp1NU2feJxEG2bh60TQM4aenvKd33rIbiHxb7lw39iD8wTT/Bud1y8SuP49ii3i+IuuPYtokZv49lCO6XOSfP9niVRYpGKeBt5MgRYzUj43tmaWoPhdd3iW3OKWtrj5IEu2St57lPrsYYkLGWyjnl0QURiU2RareOaqSRR0/u4JWMkZicpZN/RpVwhXVFjZZtZ1UrzLTMJnMn9W5Y9T8RBZmET05YmMJvwHywtXIVVqFZuogOJxgPiVk6eE93xo73eRZ/hRmyOONiY+0xWL6KKs22jymo0ecvShckwJBKYSmJuldgE+xAqFpodJKyKizu9bDwIWy70TqEdf7KyqpvspnZBdPQS0PQNS4jFQ2go6dRxUyInAwXdifSmr0QRR/XIy8f8ycb2syry4MtVbycoVjsLVdV06+3Puymm/FPjwWuUzNetyMNQ4r+sdt4xGmD3Vr2PYT3VVL+ymIf1JLDSXy5UaykyIXrb4EBsgbx3sqwjUFFh42fHvhs81GOUiIqmPj14gLM4g2IznCHHR+hs12iEIn2ugATjhrVC5zcz3SdwOe4bkN7PYRCDSagM5aujM4cOBvCsh7M6vmHWIyVLD2XmzpxD45U9CIEQl93BUK5Ewc7Ec4Bh6A5TvLWyYncWHu5gDEtcAGTcqSMwNfW9DThm1DvE6EkJnOxXAspuBgU0VwVwYxbj8BGuiT0Rlcqt/r2I1jfO07u4hJQgguzCFvFGYjDu3OrRxC3qRaaY+sLFLGo1ivsXrYlJAworGmjn/EXE8zLivPdeqon9WdQAO4UwEjltmSk8h+12xLDiAxrL7m/TFAQhX906IfEiYY5UGaGmtkcQXYb00WYepeUd+ijLJhH9UFqqRFIh7afKAwHLbWKuSclHl4NO6xJaNBp3j05d71DAcqfLocu00iI41bbA4KYmgZCWnfcJUXFm0t161KFofupUgY3vST9vYPPtsGdy7UbqkrSWZi4MCCeyWUfHsM+LnnXg0eB+Di6uoZaT8YoVAnm2I7BY9YKYc2fXDWIDdqysWfiGRr9biqhZIc9luafJq8ew30S02Dw62KmBoNa82tD/GiW0IT+LDRfyOhpTzbKe8QyyuJQw3QDEDg/Y7saeVVsjQQvCrosHXQ4zQgOu45sJnMCFzUosoVR4SRwD3bfxUEJBUDYLp0p21k1e8LgYy9QBb8mCaOJJWGROnzdk1FbOYskVOWy29L9n7zbn0kEp9T03dCcPTdDFd+NqqFDWrWZaupC0mzzhxoh65lEpdgT+yWm6wclA7AMjU7w/ByxhTFWwb9dEQ8zDjLOY4yhnST7hMXSvmszoLY1tK+cuyAKrEGROAs7MBDzriAh1guRuW+YW7iT+fMtp3BEbtooWc4o1TSrMpP0+RGcDmY3GWjB7trtIdT03UqJxHy08Cms3i7oZIyIcm+2x2Y4H9WfBoBM8VwNTkUbOTsIBmhnijKUPWYh5GA5IKmMjd1vpAA4hhUUeEXS03hznhuSSgA4TviLuV9ImIqKliOtktB2RpUs5JfsUGhtytBJsIsdr3S1AzPYm36G5aFzwYrFhKdmelfFBYJjcwdotDHTZS9IsYKzRIkMfU/HdIVj5tb0SQp6m4B+Sh2TVaegR7msiOXDMhI0AOTLpO13j9MTreh8hKCqbBm9Sh0QJOT51ThYbeE3AteI3ArkDteEwigwU3Tx8XF7N3LpN4fIhgm+QauhzufGOwrP4wZ4dMGz4JHKaRcbNYKFqZmDhkBA6BdCgm6N8y7bIo+ldSbdG1ABuNzY5WLO57cQWXGCIdvhMzoxyhyAj39qGNkU4k6yCwbzcbaOqPNu8Qf0F35FFMyd5DJ7TGryrDoFtPM2hVEMJTkzcSS9UYMqPMTphydHqkm04RMZnYsdZSnpphAoOg/cwWGt8LAczzikBO3mrgqCUuhfqRRPQqIH4YpBsYl1mIxxLtvzdU8UsxDOvaRYFQEYetW1KLyicqvqzQmWQjLtN1VzSCtQhOaPOzRpMDcqC6LCm501LJnQ0zYRKVFSHXoMxpSOx5KPVmNlEgKBciRubKdtB5Jf1H7p4vIzvzcYfgSXdb5Ev156A8zVYjcBifshQ1rme0anaoYORIzlrxc1BsIc4CdYbMzvX00vu2/vSh4nw4m5UoWirTNx4sO1Y9to9P+dRkKUUEzlW7Xgr19WI7fAdspPTt4cJsmm8p9BdeEtLkVWj1+RUvZSWYP7nUeYASogZk3qTPIrpylTUOsmNVe0YF3TbGuoNoT1yHDSP+jgl4kApvUk8VVIxIMwgQoRrrtS1R3tjHv1hnC5EUnX2bwdJAzApD+Y8ElGRzUixBZCTt3k3RMKOgTk8eCXPtrHcjjlcx3CraTZ0IbZCC4PsiN0C9IyD6pwzcFNx3aOAdeYyOupv0xEXEoHPKHVYseh3NlEHtDofm1k8H2ttLyLxO1AFMtKmp8yM5k9m466D3aiNpjfXajtKLMPOuL/1KNgXSuhKnZjZ+Llgxlf9tp6Fg2ka2qwkT15uQbJpym42CSvwrDy5d8+CgxWTKJV7t5Iikz3ED3LSznO4PicIgxco5RYyZ9HoIJf7v8QGnirFpyUeV2rOaoougrIAZsxSUcgb4W1KB7pauO0Tb2Y+x6qmhRci5pG0J9y/3Qrpv2mk2YYE4nyMR0T1EpJxXFmd6ePWqq5+UAseSzybRChFsKSdxbdGLzHl6sotffoC7OfpjZyO0xUuMXZu2JzYKZIHuWFdaG7PoxWUEigoVtBo9O6Vr74SHka5IgoBZLOq+WRJQCY2yn2CD2d1pRq26wArpvyR0i7LmdT7qU8edW7bVLxQ2fWz5DPkwObU83FK+H1fdem5weteS+uFSxHrnZkDAa92ry00pkBIuP4Z4AXC3JFX3ujSlqD+NYmJiOjbZN9vGct4DYHwaeaL5llLsDfpfBIMcKwCzXzcu7h/SvjdnhCUdxQHhOYaovlE5iaV8h4M4qls2FDsknC6i7vKylhitmFzqflXdPCRggCzIW/JWXxvGBZOO70WkCYFmzMXrwQaezrTTCuLi7XJU+9hP1l4hY0gB28uHTE2OOTKRAjYjNIMcioaLtupY7fA6dLcQoFmUyzIQOmqQxsj4ix+MofxmHKv/SPrvq1mb55L8BGjE+EnbpHAQxsG7QES9phqXazIx5Vm3tKu8E9HNxYvNW4t95ZWdLppZtQnAODW5Lud7O6yYDGfzcxZl3HehoGNRNtFCe6URa/bGEWoKZ7nPWU8GfnsxkB7qzxtkx8eXEFZVSd0T31n7ffSbVQtz6QREdNpCQFq6cimgdKjtCiIM7tsmgI+FK1lg4mci76K6MHozKl7tBc3oyqVLhooygmjw2aBHrOoQy3Z/Rpp7qHaAhCrCeuTHGvwbOkcLjHDgQLD4Phi0S81P0V06lm0NGoFmLz4PAUxC4VlceFFAxT69nkIB9mPK9Fz5zmUzTO2nv2xvgMkO4VEqGLoOZtDngHuKK+f4rgaGxNfiKlcyDYdnMtbPnJX+42UMkHVfcqIAxPckuDCB3QVYGLUWr/QDjOo4kA+pO7NY678EN2XhpOjA+grq0lWq5N5HK4cJpmjqVLN9sM2Ff16BV3l+cI8Bg2OuyrTNs/SxZOnfuCM78UXXYIbXtAMEJOIya7xDltdfpcFc4gnb5FxEPdwV8NzewBJYTr6KwR2StsevphsADN1ekViYh0Jg3wfw8FoUeps99o8Qfz4/G8t4ewe9q9pKSUnPITTwsdkhz5XQler39tw1/2CTUATw+WzVea5l8OLinAgwId6Y5zpn8EN8zER9aKQ493F0N0Urg3wmF1vDNSrrk3JHnuHinWbuk7iZHDavTA+yWB9rckSv64NZd2dIaG7UmsaQTlcBGyXotIWoM1MXLl4pYvfuOyX/odESDRy/NeS7ekj2aPsKFbjlaSY8r7SOlW4OpCw6tM09tmABFhlLn20VSavensyX+1NOiK+CFGk644pT580lwKerVhsKqzSJe09TsrHvRJaIRSfd6NeonwxURUFH2mxhwjqYY8M9qecL9HSsGgseK7ko6L4mgdsupIK0am6n/ZlHHJ8qyAn7klwJh7GyEh5SI2skONIpj9u5UGnIDgV4NlvLXma3/Lnt6iGQffO59E1rMcwL8COsUUJY5cIUkqv5bX50mU2NMqopRtmVQZqTsLaD4K9WRcpLn5CB6wIa4lroXBl1ONAgBYRKv3k5jYHCbdh1FaeoX324jjve21JFes+COEnVLJ9hOpYja4rwxoZVEkpPqKqpFMZbEhngQx48seRiCnszQly/Gx34LrkzH9J2YjO7XSjS/cz85jMkl6fjcKNERBhX8Rq/r1DH7TCaSPJAh5TsZ5uiXQ1EdBcgXB6TjGcZN4oz57+CAzmOFTOpor2hosTWxeuN4e/MpLSWJ0SI12QmNfigcsNm3aQCfvzeSRwbpd4l9aWaWY03OqcpoPXlLt+sE0TlO3RNyxQ/DXY36Oaj6sC2WNJIRdfGAmy1rD8pW4+1jdo9LLSNwnSbYuC7bWL0cNa73HLHnDbSTSC3fFQ6KI0QNXmjP47/awLTCuBfDw+fAOh6rbwRjlYGMlnTOLJ5wp3kC4/7nW5KVn1R8p8qGWKLhlVqLbWMLZB1jEY/jyZUSo9bL4mP2HDp0BE3BuEDIpXwKDNgd7q/07l1XrxdUn64VUnTE+Xu+vN9f8Jit+T7HIK4D66sk+nc8w0/kIC4hkRB3htrJz68tbmB58rqigsTNj/dWBmuIrzQx5eM9PJzt/CUE35SWNBVgnPKKkyX3V+lvs6y2prb2+Wq6Xjp0f4ZCJt+iucQ43HMYsqEbooCnFmBv3Euru1iEiFSlC5OHgH75pNn/SVydlbxS6+iM+uW3weD14chmGcX3ou5TFM62AeQwaHybW3ZpbuwvwojdEoo0se7lKyVXMoSn2b1uu5zIv5oz/6oz/6oz/6oz+agOrLWzqknPjwwn6ZPWSd3hCRQVLlZbUal2WfXn5N0aTR1osaLpeigPni2HLPs44vgeG39yBeeRd5nTUx4fMcbYVu3jUtSGRvmYR83zcpWVZdZ0WKd9fQS6Lbo/nUVaV154WJFvlq4XMYujyElrRveF3eTvmI8Ocw9JM4+tR0qpXy09fBUErUX6gmBV/Lrrbd8rWUxnhhH0QglWe/VBSTa0MeLoDSFONrFR/aioTcj5a9AwaR8aak8LULhI6WWUYmr+MpzR8N8Be3o4oN+eKFg6bnR2fO2JqoFiJ/DwzjezCMMRhsypPqdphvglF9D4Y3BoPWfdU8qrh9/epO1OJ7MHZjMOgR6qjWN8GwvgcDj8II+jrpTYfK/EkYcKmps+6L3whjibvNdr8SRp/+YHyH/mB8iTiMV9eF3gTj1Zf5OIyvtn39wXgp/RQMeyC++10w6qFU1++CEQ/9it8F4zTUAMdhvHoA/M/AWA1K/XMYSwt70fl8DLMxb97E8fF+OkeHEFuare3CcMft7QAMdRimTE9grDO5EWdoBoGjDnNG0JGshSHyVDRpcL4c4jisCO0oScgGYESDx38URo+9m/ZlmgbE7mWNDgyr/w5FBwkYsWPbW9+0sgJfQ9aMqW/oGIGxjPt/Speh0TVOdUcodWCsdP260l6P5A61KEZgiHRf5m627X2hfksU73zLgo278cXfv3Re1IFhwCwNhbvoIA83+TkYYr14Qki01/YmVTFu2uvKqfav9WFIne1x767qMIyBUUBDMESTfdV50KtQ0KeyImXcdSRRB4MD1g0ibJvxY887JMfPpr1XL51DMJpT1Oy0yGh1XsgeKxJN7zPVupcpMNijUNv5ptFUa5NejRiYIzcAQ6go6W67Hgbuw6B6qKOb+zBY/nigPKRVuKvvw+C7IYc5n1oYsXr0mocnLYxW8mka8TjUDqe3G+a3Yaxo9UNJaOsG7TVpyo6MFl2L34Vx0IB/CgPkc+BC6qCm2ludIrMeBj99p6cfoyvDWJ56i/QlGOSMPL4Jo0dHLYxG+4/f41dgBBp5UmkARtD/+5y+DuOuhSFdUBwbdSHDYNWL0RsnQ476D8C4aWEoU9Tw4NGSYPAaweioqyEYdjEexD6HIZa9+1wZUIvigV/EYUTGsvGmxnJK/zWl8Kwu3n4iQe9HndvAF+2vEsZTcpnHissvgLE0d5I/qvFpul73YThsUmjkCvpPw7Bx59aJzjXbdO/ZaAqoGhgjtaEfhbEsmhaAm3fmX2h/i/mhMtg7MPJA+uZDOrve/EtgiJn36IR9cBoYpNPA7+lcB+6GVw2MA2yB+GZQRf8cDOHjVkL3JKMwiIicZRx6D5cHqo00DSnI/wqj290mJtpIbXVMAMY+0GkvtXt0fJ+Omy+CsAHX4sdgcKGQY73oKQxp2n832m3sBqNlc8ZeCoOvliKpxy/AkNpQVJeJw2hix6adQu+T/AwMYZmVp3dlPQX1IgZh7dWgvbMb7bHSW4+fgSF0lMKjFsa536XI90P1mTiMdi/XzenTNZ0KBr4LQw0mhdVWYJzVY0Fp2X1Ry6B2NySr0w7z0KgrwcCXYWhff9f9AQZD1UDwSXw9KWXv7YfnSL2d3yZx+rkv8ZMvT4pBuiMgDq4sf+IUKPtGP1Cw21KtW2NhheRnrQvTPVeNAuhK4hA1w2UU/6ZZqJaXbdMfF1+9kzhbrAFILQCxhT+pf0dYFHnhV+3d8s6qtz/44pC7pn3uJq9eG0OwSRVBcUYdWkowlLlnvMNOlfxmtRQ3SvoEo4v0521lnsYRW8ETLLacbE6ybWOyR6fS0VVir2v0zQf2N0TWXT5fpLNBkmN4Ktq/ovi9x7SuyYHdeh0vk9HIbVp1Qiml+6q3Tpy8rTxZrDkE4ygZ9esGR8FVdwATNgYmm4xMDdfdXxdnQQ1N2YdcNCcjbtdT3zSrHHXdrKhmoN1VfV5Ri3G7eDFUb6rYSyLmFo2EdUwfPc7HQ+55Xn4hsE6NEXDbCRVlyvOsPOuq6KDt7tzlcaceZTU7XpYgv202Uq2hkF1y+kndJ3dtbWdMdpysyvNYqeQt60yTdF1taxwm9/LxOF3Corduq7rIzH3guC0zMlt1WKWZ6Qe24xJu/ge+kBs829E/ggAAAABJRU5ErkJggg==;" parent="1" vertex="1">
          <mxGeometry x="380" y="220" width="48" height="61.82" as="geometry" />
        </mxCell>
        <mxCell id="oo_KVRj11kOssmEsgrUC-1" value="" style="shape=image;verticalLabelPosition=bottom;labelBackgroundColor=default;verticalAlign=top;aspect=fixed;imageAspect=0;image=data:image/png,iVBORw0KGgoAAAANSUhEUgAAARUAAAC2CAMAAADAz+kkAAAAb1BMVEX///8A3P8A2/8A2f/1/v/6//+79f/m/P/p/P8A3v/w/f+R7P8g3//F9f/5///u/f/f+v9s6P+v8v+n8f966v/Z+f9F4P9Z5f/B9f9V5P+d7/+H7P+28//U+P/N+P9z6f844/+g7f+D6P+X7P+D7f+pm44WAAARRUlEQVR4nO1d7cKiOA+VCgpS5VMQUWSeee//Gl/apl/QAuOOCrueH7uPCA4NbZImJ2Gz+eKLL75YKQ778/HSxP7piWv9+Jhds13s//W7+iyavHUQQVDlu8OfXOnFYYkRA06Or7rBD+BcIeQAiGSSizfzyuhaIHltd3EVv/RO34hMGRcMDl/nrKQ4dwaXOunL7/ctCHsDg9GFU/Nln/RFwq7M3nLXL0ZmGhqVy+jwDrlRJuTCy7tu/XWIFYWCkDZS1DbWy9JAO1O7Nvgjdb1IVDAWVOR1WD9aXXnm5gHGFVJFEpR1lmZ1wX/q8eYx/HU0MJLg5tLP7v5aOYpcsGk5ZOoZweMYscPejR9buyHiD11dK/eHoxjquq913USV2lV13S7sG5S/4c5fCB+GcdUPE5MrtYvust6x/Apnrn5hDd+9+LZfjCsbBR58EZdy7I66iqRz000jt3+Zi9lXu1fe9MvBFpDRxbhIK6NMpVyZQybtwZyfdS8hD6bK3vit9EhQwo64wvbYvJmzY5l8K8KRPdnK8nUjVAhqiYmO5efKLMjNhpnn7ZpdFqZWUGj7/iDMDerm012oYGTfDjzQ6hXLDxuC3YXt5MZdMyzcWRSM+PQ3ZDJqqwIzNMGY03UMpCoZU7McdyaVn799q+/DqaVDwKMxNF/6J0wo5cAeq4gDVT2vES4bQTEeS3FLVSxTRtfHbD7NjVstDyAVmwkSeCguvlUz898smFSeif8uAwemA8rJE6UpqqdO9ZhpxqPLbNGYK5WdsoJG7BUDc/SCf71UGlXZBueJs/8jUmFWRSiWYCLr89+QykE4b9ydGx9wtXa94jrTNshruablKnfi/NVr2zmWWcgiEyGlUZflUKzeX2ExomLkufJkEfVTuN8ytssBL65ar1S8SY8/5XJgfgr3cke2xOv3+Cd3h9wm80EKJWO3zyzstObdIcQbkW2IEWwM5Xo48CNWbdpMhGxWAIiy2vgVFRdBJA7xVKPVnGf2SPBakI2GiLjNcdS5dFTVrwH5ZCBr8YDpblaNO7NqFdl6c0AOsgaR8ct1AJzbwvSdD44+eriRLxEdwBAhY5LdK5g2fvGNvxZs5APT7LkHXyQ5WhwE5Lzuc/cHxpirlso/uH23hOkd1L7p/l8DGPpdHnGbLEwqPCAxGdCdgqtHmDWKPWpWH7bdCCN0ox/OaVgFAxbLlGQox7AMU6aSr+s3Qdx3RYm7C9s/E4dBOG24A6WzahO02eyRHNWTAtFFA399elz/ELMngsSMK9acZj7d62JKHE6A27aqyoShrKqW2KQp4RT1fZ1B/jgsHMPQlNmAknO87xwU9yTtr3dyD5G/j2MZ9jfzS50iXB0PzE2roe0l48NFGXJPH485qD53W+qwLLBBNt2BKl1TRM6v8ZCO3blr+e1OCBjAhZzgze74frr7e3+/PVpnMPUQwvVaKh7Oj+GcR1XacAcewm+T/NCkx6k7NFlrWJCPqVTJEhCXukxgaHKDuOffTM1+l58opwMEpfR/AJVLl4uvy4TUd8Bf4hQeVJnm5fA1JEIthy37sTzo/SvlkteRF6p324kk74YOrEeuRAZDHUHVU0DgKbebzUUXjIG1uxgcVSYKckpGx6511iM3LTbemwq+2LjTViqbIPdWqisJ4WUWVLlqkUZnHLg3AZx1iIgAAXdm3DXUFK4Lv8TVSFwrjwGhfIFm+lyoMsmkK8KJw/RZRizgYkhyeYfoMDwI6jWgPycXEEd0VeVSLE7rqpxirDtXD2UJ5WZXJUrzqsVtld968TeNuF8awvtuphDcg4UxK2VpFHKuvZnMl1B3+GxUtfsc9j0kklLrDi93WrppEMG/0ZsR7lWpCVhU3OUq7+sxcOMZZ4uGnhLTwK6a/9ErLAQaB5EjBJyGWWtfFoksiXGabsUcNoWDck7YuKvrgUPjChJstZQAbJpQw6P7pnE3Yv1uFzNbeArHluKAdePsK1V3AgZC6f3MAZR1Bb8SmE26mC7bhVhonsJwkKWo1oOn3BpmeT0USk+hcpXVjlOEhGab4kq9CVwhOtanlGnbFzWFfDQJpTtTSQqcWk3tWM0MJ3nP8ppfDm48g7v1lEhlvqkz6lRYpKLSU27qOSMcJ65cllDZ6/Fs19h6VmjGWsz1YotDakF8ZbKM8nGPBpF+CNyujJrERhmXqnwMqhbOUhXuTrl6NCrJtxP2Wfsu1DYvQoN83OpUEVHIIbDq5MpiqgmdAWp9kuD9cjDNYKWoAISF0KbKfSSQrzp6YrJMBWWOI9n+dyJij3uSI8AHq51oVSv9VYBNV5sA2f5P8zhiPGdmy5iA5tKkI1LRDAmYIfRr6p9higp/OieyB6Ln1Hn1P5IKV6OTCgOI23NCWq8EOOTBhDH0+Gi1XKjFhxuuIOHvTASWPFhBH69gBbU/oQaltr0pR89WoejUUnn1xN7vNssgvgFgmdvxpygsM1InS2S3zBqfW0yVCY6TWyzFMsPzHg/Eql6cOlkSqxenBhuUbj/jHgDfai4gUsnTE7eRc9TCQnWyWBWLqlY8ZUaNMtVTJQf7afB5MKJaDrbd4aYyi0Wz9HpjKLsrIpiqiyBCiUoNqyrsRRIU5snZMlkUh8PlDFT2X+t+iwtvIf2NXL5NsWk5HnWqnOHAriaxaNOJ18pAhN9WHC2Ki5ZSTyW2M6gyxsFEhBK2yBr91hCM0zQ3RPrQI4IvjRtiXxq5z2+YAXL3Zuz8V/ej2dqc6jfZQ/oi4W1qYjBYxkKzVDZZWFBKSLruBtoEBNzIskh6OVGKm9YoodcV7A5HcyH74Qo5K92QFtWP8SYfltOnH91llizmotNOOIS0KSljiPVybDBgEqIGtds3MX6u/Ntj7sEH0KiJzVDbh0A6iJoGvknszfNTE5Ytbstr09tPcV5H2P8hjqhWU7mLsMkqIsX10OeL2rbrwO9/Xmj1BLIOqOFpBkvIr9V+e2Zd/2FctV6KCX9uoBmgxVtmUrhW9OIPvSV0LLV/cUHJVBV7vXskvlJfrNfLjBcWzgkMxXBuC59VglB81Xia4w1+Potep1GnTfewXRaapOmNdAycHMhdENg24U2ctXrKPliU7enDrXsdWB3u0IpTeKpxOk3Od3tSvcLPtjrDGQXDJoQLg6YAHbF9kbY44t9MhZz5nlJJ1psiD8jJPx2QnIP9kJndzfp8twd7zRXuVPl6oqvag3/Lh8USCgFv6Yiy1kS7b5Nw57se98xGIzIqBdVz/V2dYBOVX2/0ungcS0NlIWvI//Pgn8dGJDL2jx9Wljf8MadcCFflD3BIW2MRi1IJU12a2KQnD3GzE3sb24+02adzYU8iSqvhgHpzB21J5RRuGTAOnO7IZElZm61Bw1phj+IbBDS7NnHldYce8AjxXyjHpG/6MO+bVwYgCZRefH20RqU5WyBBkWe+B/vmxTAln4JalO369+ujwsEfLRUqD1w9sjN7x87FEE1YHYZ9QaL4nuVlgfG0YBAuiqRO77FibNgOfOV9Etj+ztDCyN0L7x0zaH/RoSeGVzBx+u07bv5lYMrRyD3ysOL5e657iA6uS8QA+SWEjTkOCAKvxc03IaImyML54QmRXoqaZ4gsKQyI9C8sQPtHONqTFRsl23cbXGJPEoL+XmjgbRYmWlOJVxJIbXwWHXws1/wLGrBAdNKWzjuJJmBcTYheaVY+DPSLWwQt/UmwzvN2PsleCIEZX/7uBmRvvAe9BVfchxJU40jnedFckLHMRatOe4gA+FFLybE/ASAjjHWeF40oyZLIJzQtAeRnV9z1F0pMRzlzgmGRzOvkyumJH6dJPg1WtIuKUR0g+pRW6rSZOn/NUpnVj59TTwQtZ/x0kMqq4rUa5kmlVyw2pUf/I1LR3vSBLNWWEv8VqUCJBLO4k1zZcu3bw1nalkDwcWdwZVevbU8zLDNBrqygamq4q7fMM7y4Dif9TTnFuGKB/gIr9uKmPf4OkWaCnNES4I2oVVyxx8/fSzY2zLt8A5f4Y4yMcgYNvuLd4XTfVVn64zSSSTwSwm9GA1mrAMTirJwMV3uznydzy63VQAML7PdrbvgtgE5MNtOsvAWyogEWYYxQYJtf82rXlg1wz4yK5SRZUSgB5am0tymNOprzmFesbMV8N/FIj9L2KFH+i/L6w6thioGmal92x+8Ar+MeUE182awSOepyiBVhtYOQ3AmSZGsO8W8EcbhnMjSeeY8pe5LleAiVPfIBpyWvmr0ih6GmfGKVfmqwsanS1AtV6pW818sSKgv/CXg7MzHnfY1JaH6RrK92XEHBD19h4hVM66avbJS4rFP+ysIy2Grc+4elXi7TekwihKskEdJcdTKIwZM+SZ+3glr7M496rYPVaycDUyvAXXudoTLOIBvdy9wrC/dn3R4cx87Yar1XWmXCpTCSStfN/hI49nlNnZ4I58RdvWMZ9C8N1szR0LBP1JKvTu/uZkfSzqSrvxJrSNYbrx3iXGNgWeNk94fK8p6VsJ1qwwX0hfi72DeXy/H+JMv8cL7fz6veEX7xxRdffPHFF1988cUXf4b98Xa77RbTxsmOHS/xIVU+ZX75Byly4974t4N5Q9JLBQE6XC+9gnenRkNIzfGze9woN9YUhYgmpDckHCzzAMtr0aODSUUW4aLgueeYYnOXZxLkp1Kh0X7+z6Bg2QEGKpWCgQbgniubJHmBUan4VOb58X7OSehl4UF/IhWerHEzOlueUS3JlFQI6wVetEL5l8vmmVKpiOQwSY0+9SKFSankSOYPwy1C20WH/XWpEP4AS1P4Nd5uUSWi8+ek3XYHWtk75VeFttugJKHq4y9CCMS/fg2D+VwqRN6cbRdlaZotOpqrSyXkn1LQvVwt1lwZ88ZdR4cfaF3xli4DoZ9LhfI10O9Fy0JCkwptv070CtECzFwgWlbGP9OhES/s6MgzWl6ANiaVeMsTKMcVBHOpVH43R4KcGCFCiSP0JFTdvV13gNBxDuT/Zez6V4dl5ekBnHn+/8gV2e2HhvR/foZcIGGZRdEZcpIFvAJmHDvhRsBMILRYohppL0FiLrqZdK5wwHoLloiK7Rc5la6tnFzG1Ma4v+LJ1nQIFavw4uT9VntWKAgMWiIfQleJ9tQ/9R6Iuhot4jTLc1WH99O0DequVVpqLa4pZw9irpCbxTV9hrTfA9OyKRI1Ue4h+ymYA0berasTj2dIpbNrSlZx2SwFpleOF7rsMXuClHOb/BAQPi3p++DtEryFNVbSCmWdvj1LKh3iC/TUWjYpWdggWpHLqJNHRdd0f229zZ1OfiEV0v/2Oal0OO0oL2ryZTGfhLTM9N0S1BthUtkKHKKA2ugyO/8PzZNK1FxSqp65VA7NRZJfiFi27xjds1D8FcqEJBVfVCrq86X7XapHciqVvXCBOXpSIT49e6EJ+VEcba5k+QkXjtjz7ZKLHRSpHDDzyRibuvfyNdhKJ8wGYbG39nGZXP3+nvk34m8xJJcW3qbZqqqEa6vFQvVtKQuUEJMKxLf6ZZmHZyoEaohJAR75hrj4rN5nR5TPuS+VC4JyBg/8QsbiBbN1XXwoQfP46X4miJiDH3ob70p65l1ZfcIRmgST8VAjRF7dfsaMSxsyMfHwwIna3zC+EA1Cmbusfqa8nc9pSfX6ov04TSq0a0i3NKgfioqkgCXFWiOUYFSJ/0K3kUHCXll+B1VdlGIfVEs3CMqlKmnYno5tvQ36npmtoeNmX3BDjGgJIh+SUwcQMMrZEQdecxDDbpH/kPTvOb3dVVpmo8mesB+GLpVNTm66dTduDY3fHtSSuAn91N43pE0ljaLcMHvwFVsKKWsqJwzLCX4A5YJQl7Z8310tfntow6lJ07QRu/74lqa9RM69O3QRBtztPh3VsKNHfkAPG8THlPzoooOTX3zxxRdffPHFF1+8Ef8HiaLEkg69+7oAAAAASUVORK5CYII=;" vertex="1" parent="1">
          <mxGeometry x="-90" y="156.81" width="67" height="44.02" as="geometry" />
        </mxCell>
        <mxCell id="oo_KVRj11kOssmEsgrUC-2" value="" style="shape=image;html=1;verticalAlign=top;verticalLabelPosition=bottom;labelBackgroundColor=#ffffff;imageAspect=0;aspect=fixed;image=https://cdn1.iconfinder.com/data/icons/bootstrap-vol-3/16/filetype-html-128.png" vertex="1" parent="1">
          <mxGeometry x="-80.5" y="305" width="48" height="48" as="geometry" />
        </mxCell>
        <mxCell id="oo_KVRj11kOssmEsgrUC-3" value="" style="shape=image;html=1;verticalAlign=top;verticalLabelPosition=bottom;labelBackgroundColor=#ffffff;imageAspect=0;aspect=fixed;image=https://cdn0.iconfinder.com/data/icons/communication-technology/500/code_brackets-128.png" vertex="1" parent="1">
          <mxGeometry x="-40.5" y="300" width="58" height="58" as="geometry" />
        </mxCell>
        <mxCell id="oo_KVRj11kOssmEsgrUC-4" value="" style="shape=image;verticalLabelPosition=bottom;labelBackgroundColor=default;verticalAlign=top;aspect=fixed;imageAspect=0;image=data:image/png,iVBORw0KGgoAAAANSUhEUgAAAMYAAAD/CAMAAACdMFkKAAAAe1BMVEX///8AAACSkpLHx8e7u7sLCwv19fXg4ODp6en7+/v5+fns7Ozw8PBmZmbNzc3Z2dnV1dWIiIjQ0NB1dXU9PT1sbGxSUlJbW1udnZ1JSUmrq6tgYGChoaEfHx97e3u3t7csLCw0NDRNTU0ZGRmHh4coKCg7OzsWFhYzMzPAGFf4AAAXVklEQVR4nO1daXuqPBMmAQWVRWURWdW69P//wjeTBRII2D6nCn2vzodzWqrt3Elmn4yGoaXsgk6PMND/8LeQg1BK/qvQdWpO/ok+KArDSFA9MSf/QjZC7IsARdNy8k8UoHhlmVvHzQSe30nIqxCjx9Ss/AthlHEY8dSs/BOVHzcGw5yak38il2/GrxYNIO//AwbHYU/Nxr+STWGcfjuOgEtHmeTJvST/V+upWfovlBAIRyTTYWqW/gOFhO8wJ//cTMe+UhiLqXn6Nq2SZg92zja7068uU3P1XdojHRVTs/VNwloUvy34yPUoiIxvpmbtG5R2uc9aXHn9a5BcuzDIM7Nqv71Umb+cmskv0KUDg21AvZCfRdbETD4nvwMj5c8T5ensI5GlzG2OF4geIefREZrZhyKC0c+UOoZRpDwVNHf96zA2sRNkGBf13mTeVNyBcazn7f2yOLzKPlqWT3vDOINAZPvtXSM2M6R19/QI5VSw1T8rT+eqsZYnHQavZqZi2bOO+WpihnW06dlw9NjVbUp6vXZ6L5iZylriruFDi8py2Q+vXDFVhtnDcfSnY7pHVpe70HJdM8PXXUEFnOG4omVXZdFDh52J2eek2u4ytR3JJUQ1cd7p0SJRoayqokNc7XZ4V3nH4yyk/VNGUdj4AykUkXAWXia+DQvsqzkGAjTcT8K6RI0HkkSaM8Po04bNOGATDpDDt8fa8t9AM0KL1J0OAxBlNPfX2SAKQoessdyg0ohmQ00lx+avyScttaWgcexesCEdq1ThD15pGXH7rG5eeZkSyDKrFoMY8robKZlEmAIbtw/O0svDt3Iu0Xo3vA8VGDgbH0o4/ENSXLSvvxTJRMnfQYngR2n7gVLfup93Qyhkq1O6xuY0xcFKtBBOV4vp1NU2feJxEG2bh60TQM4aenvKd33rIbiHxb7lw39iD8wTT/Bud1y8SuP49ii3i+IuuPYtokZv49lCO6XOSfP9niVRYpGKeBt5MgRYzUj43tmaWoPhdd3iW3OKWtrj5IEu2St57lPrsYYkLGWyjnl0QURiU2RareOaqSRR0/u4JWMkZicpZN/RpVwhXVFjZZtZ1UrzLTMJnMn9W5Y9T8RBZmET05YmMJvwHywtXIVVqFZuogOJxgPiVk6eE93xo73eRZ/hRmyOONiY+0xWL6KKs22jymo0ecvShckwJBKYSmJuldgE+xAqFpodJKyKizu9bDwIWy70TqEdf7KyqpvspnZBdPQS0PQNS4jFQ2go6dRxUyInAwXdifSmr0QRR/XIy8f8ycb2syry4MtVbycoVjsLVdV06+3Puymm/FPjwWuUzNetyMNQ4r+sdt4xGmD3Vr2PYT3VVL+ymIf1JLDSXy5UaykyIXrb4EBsgbx3sqwjUFFh42fHvhs81GOUiIqmPj14gLM4g2IznCHHR+hs12iEIn2ugATjhrVC5zcz3SdwOe4bkN7PYRCDSagM5aujM4cOBvCsh7M6vmHWIyVLD2XmzpxD45U9CIEQl93BUK5Ewc7Ec4Bh6A5TvLWyYncWHu5gDEtcAGTcqSMwNfW9DThm1DvE6EkJnOxXAspuBgU0VwVwYxbj8BGuiT0Rlcqt/r2I1jfO07u4hJQgguzCFvFGYjDu3OrRxC3qRaaY+sLFLGo1ivsXrYlJAworGmjn/EXE8zLivPdeqon9WdQAO4UwEjltmSk8h+12xLDiAxrL7m/TFAQhX906IfEiYY5UGaGmtkcQXYb00WYepeUd+ijLJhH9UFqqRFIh7afKAwHLbWKuSclHl4NO6xJaNBp3j05d71DAcqfLocu00iI41bbA4KYmgZCWnfcJUXFm0t161KFofupUgY3vST9vYPPtsGdy7UbqkrSWZi4MCCeyWUfHsM+LnnXg0eB+Di6uoZaT8YoVAnm2I7BY9YKYc2fXDWIDdqysWfiGRr9biqhZIc9luafJq8ew30S02Dw62KmBoNa82tD/GiW0IT+LDRfyOhpTzbKe8QyyuJQw3QDEDg/Y7saeVVsjQQvCrosHXQ4zQgOu45sJnMCFzUosoVR4SRwD3bfxUEJBUDYLp0p21k1e8LgYy9QBb8mCaOJJWGROnzdk1FbOYskVOWy29L9n7zbn0kEp9T03dCcPTdDFd+NqqFDWrWZaupC0mzzhxoh65lEpdgT+yWm6wclA7AMjU7w/ByxhTFWwb9dEQ8zDjLOY4yhnST7hMXSvmszoLY1tK+cuyAKrEGROAs7MBDzriAh1guRuW+YW7iT+fMtp3BEbtooWc4o1TSrMpP0+RGcDmY3GWjB7trtIdT03UqJxHy08Cms3i7oZIyIcm+2x2Y4H9WfBoBM8VwNTkUbOTsIBmhnijKUPWYh5GA5IKmMjd1vpAA4hhUUeEXS03hznhuSSgA4TviLuV9ImIqKliOtktB2RpUs5JfsUGhtytBJsIsdr3S1AzPYm36G5aFzwYrFhKdmelfFBYJjcwdotDHTZS9IsYKzRIkMfU/HdIVj5tb0SQp6m4B+Sh2TVaegR7msiOXDMhI0AOTLpO13j9MTreh8hKCqbBm9Sh0QJOT51ThYbeE3AteI3ArkDteEwigwU3Tx8XF7N3LpN4fIhgm+QauhzufGOwrP4wZ4dMGz4JHKaRcbNYKFqZmDhkBA6BdCgm6N8y7bIo+ldSbdG1ABuNzY5WLO57cQWXGCIdvhMzoxyhyAj39qGNkU4k6yCwbzcbaOqPNu8Qf0F35FFMyd5DJ7TGryrDoFtPM2hVEMJTkzcSS9UYMqPMTphydHqkm04RMZnYsdZSnpphAoOg/cwWGt8LAczzikBO3mrgqCUuhfqRRPQqIH4YpBsYl1mIxxLtvzdU8UsxDOvaRYFQEYetW1KLyicqvqzQmWQjLtN1VzSCtQhOaPOzRpMDcqC6LCm501LJnQ0zYRKVFSHXoMxpSOx5KPVmNlEgKBciRubKdtB5Jf1H7p4vIzvzcYfgSXdb5Ev156A8zVYjcBifshQ1rme0anaoYORIzlrxc1BsIc4CdYbMzvX00vu2/vSh4nw4m5UoWirTNx4sO1Y9to9P+dRkKUUEzlW7Xgr19WI7fAdspPTt4cJsmm8p9BdeEtLkVWj1+RUvZSWYP7nUeYASogZk3qTPIrpylTUOsmNVe0YF3TbGuoNoT1yHDSP+jgl4kApvUk8VVIxIMwgQoRrrtS1R3tjHv1hnC5EUnX2bwdJAzApD+Y8ElGRzUixBZCTt3k3RMKOgTk8eCXPtrHcjjlcx3CraTZ0IbZCC4PsiN0C9IyD6pwzcFNx3aOAdeYyOupv0xEXEoHPKHVYseh3NlEHtDofm1k8H2ttLyLxO1AFMtKmp8yM5k9m466D3aiNpjfXajtKLMPOuL/1KNgXSuhKnZjZ+Llgxlf9tp6Fg2ka2qwkT15uQbJpym42CSvwrDy5d8+CgxWTKJV7t5Iikz3ED3LSznO4PicIgxco5RYyZ9HoIJf7v8QGnirFpyUeV2rOaoougrIAZsxSUcgb4W1KB7pauO0Tb2Y+x6qmhRci5pG0J9y/3Qrpv2mk2YYE4nyMR0T1EpJxXFmd6ePWqq5+UAseSzybRChFsKSdxbdGLzHl6sotffoC7OfpjZyO0xUuMXZu2JzYKZIHuWFdaG7PoxWUEigoVtBo9O6Vr74SHka5IgoBZLOq+WRJQCY2yn2CD2d1pRq26wArpvyR0i7LmdT7qU8edW7bVLxQ2fWz5DPkwObU83FK+H1fdem5weteS+uFSxHrnZkDAa92ry00pkBIuP4Z4AXC3JFX3ujSlqD+NYmJiOjbZN9vGct4DYHwaeaL5llLsDfpfBIMcKwCzXzcu7h/SvjdnhCUdxQHhOYaovlE5iaV8h4M4qls2FDsknC6i7vKylhitmFzqflXdPCRggCzIW/JWXxvGBZOO70WkCYFmzMXrwQaezrTTCuLi7XJU+9hP1l4hY0gB28uHTE2OOTKRAjYjNIMcioaLtupY7fA6dLcQoFmUyzIQOmqQxsj4ix+MofxmHKv/SPrvq1mb55L8BGjE+EnbpHAQxsG7QES9phqXazIx5Vm3tKu8E9HNxYvNW4t95ZWdLppZtQnAODW5Lud7O6yYDGfzcxZl3HehoGNRNtFCe6URa/bGEWoKZ7nPWU8GfnsxkB7qzxtkx8eXEFZVSd0T31n7ffSbVQtz6QREdNpCQFq6cimgdKjtCiIM7tsmgI+FK1lg4mci76K6MHozKl7tBc3oyqVLhooygmjw2aBHrOoQy3Z/Rpp7qHaAhCrCeuTHGvwbOkcLjHDgQLD4Phi0S81P0V06lm0NGoFmLz4PAUxC4VlceFFAxT69nkIB9mPK9Fz5zmUzTO2nv2xvgMkO4VEqGLoOZtDngHuKK+f4rgaGxNfiKlcyDYdnMtbPnJX+42UMkHVfcqIAxPckuDCB3QVYGLUWr/QDjOo4kA+pO7NY678EN2XhpOjA+grq0lWq5N5HK4cJpmjqVLN9sM2Ff16BV3l+cI8Bg2OuyrTNs/SxZOnfuCM78UXXYIbXtAMEJOIya7xDltdfpcFc4gnb5FxEPdwV8NzewBJYTr6KwR2StsevphsADN1ekViYh0Jg3wfw8FoUeps99o8Qfz4/G8t4ewe9q9pKSUnPITTwsdkhz5XQler39tw1/2CTUATw+WzVea5l8OLinAgwId6Y5zpn8EN8zER9aKQ493F0N0Urg3wmF1vDNSrrk3JHnuHinWbuk7iZHDavTA+yWB9rckSv64NZd2dIaG7UmsaQTlcBGyXotIWoM1MXLl4pYvfuOyX/odESDRy/NeS7ekj2aPsKFbjlaSY8r7SOlW4OpCw6tM09tmABFhlLn20VSavensyX+1NOiK+CFGk644pT580lwKerVhsKqzSJe09TsrHvRJaIRSfd6NeonwxURUFH2mxhwjqYY8M9qecL9HSsGgseK7ko6L4mgdsupIK0am6n/ZlHHJ8qyAn7klwJh7GyEh5SI2skONIpj9u5UGnIDgV4NlvLXma3/Lnt6iGQffO59E1rMcwL8COsUUJY5cIUkqv5bX50mU2NMqopRtmVQZqTsLaD4K9WRcpLn5CB6wIa4lroXBl1ONAgBYRKv3k5jYHCbdh1FaeoX324jjve21JFes+COEnVLJ9hOpYja4rwxoZVEkpPqKqpFMZbEhngQx48seRiCnszQly/Gx34LrkzH9J2YjO7XSjS/cz85jMkl6fjcKNERBhX8Rq/r1DH7TCaSPJAh5TsZ5uiXQ1EdBcgXB6TjGcZN4oz57+CAzmOFTOpor2hosTWxeuN4e/MpLSWJ0SI12QmNfigcsNm3aQCfvzeSRwbpd4l9aWaWY03OqcpoPXlLt+sE0TlO3RNyxQ/DXY36Oaj6sC2WNJIRdfGAmy1rD8pW4+1jdo9LLSNwnSbYuC7bWL0cNa73HLHnDbSTSC3fFQ6KI0QNXmjP47/awLTCuBfDw+fAOh6rbwRjlYGMlnTOLJ5wp3kC4/7nW5KVn1R8p8qGWKLhlVqLbWMLZB1jEY/jyZUSo9bL4mP2HDp0BE3BuEDIpXwKDNgd7q/07l1XrxdUn64VUnTE+Xu+vN9f8Jit+T7HIK4D66sk+nc8w0/kIC4hkRB3htrJz68tbmB58rqigsTNj/dWBmuIrzQx5eM9PJzt/CUE35SWNBVgnPKKkyX3V+lvs6y2prb2+Wq6Xjp0f4ZCJt+iucQ43HMYsqEbooCnFmBv3Euru1iEiFSlC5OHgH75pNn/SVydlbxS6+iM+uW3weD14chmGcX3ou5TFM62AeQwaHybW3ZpbuwvwojdEoo0se7lKyVXMoSn2b1uu5zIv5oz/6oz/6oz/6oz+agOrLWzqknPjwwn6ZPWSd3hCRQVLlZbUal2WfXn5N0aTR1osaLpeigPni2HLPs44vgeG39yBeeRd5nTUx4fMcbYVu3jUtSGRvmYR83zcpWVZdZ0WKd9fQS6Lbo/nUVaV154WJFvlq4XMYujyElrRveF3eTvmI8Ocw9JM4+tR0qpXy09fBUErUX6gmBV/Lrrbd8rWUxnhhH0QglWe/VBSTa0MeLoDSFONrFR/aioTcj5a9AwaR8aak8LULhI6WWUYmr+MpzR8N8Be3o4oN+eKFg6bnR2fO2JqoFiJ/DwzjezCMMRhsypPqdphvglF9D4Y3BoPWfdU8qrh9/epO1OJ7MHZjMOgR6qjWN8GwvgcDj8II+jrpTYfK/EkYcKmps+6L3whjibvNdr8SRp/+YHyH/mB8iTiMV9eF3gTj1Zf5OIyvtn39wXgp/RQMeyC++10w6qFU1++CEQ/9it8F4zTUAMdhvHoA/M/AWA1K/XMYSwt70fl8DLMxb97E8fF+OkeHEFuare3CcMft7QAMdRimTE9grDO5EWdoBoGjDnNG0JGshSHyVDRpcL4c4jisCO0oScgGYESDx38URo+9m/ZlmgbE7mWNDgyr/w5FBwkYsWPbW9+0sgJfQ9aMqW/oGIGxjPt/Speh0TVOdUcodWCsdP260l6P5A61KEZgiHRf5m627X2hfksU73zLgo278cXfv3Re1IFhwCwNhbvoIA83+TkYYr14Qki01/YmVTFu2uvKqfav9WFIne1x767qMIyBUUBDMESTfdV50KtQ0KeyImXcdSRRB4MD1g0ibJvxY887JMfPpr1XL51DMJpT1Oy0yGh1XsgeKxJN7zPVupcpMNijUNv5ptFUa5NejRiYIzcAQ6go6W67Hgbuw6B6qKOb+zBY/nigPKRVuKvvw+C7IYc5n1oYsXr0mocnLYxW8mka8TjUDqe3G+a3Yaxo9UNJaOsG7TVpyo6MFl2L34Vx0IB/CgPkc+BC6qCm2ludIrMeBj99p6cfoyvDWJ56i/QlGOSMPL4Jo0dHLYxG+4/f41dgBBp5UmkARtD/+5y+DuOuhSFdUBwbdSHDYNWL0RsnQ476D8C4aWEoU9Tw4NGSYPAaweioqyEYdjEexD6HIZa9+1wZUIvigV/EYUTGsvGmxnJK/zWl8Kwu3n4iQe9HndvAF+2vEsZTcpnHissvgLE0d5I/qvFpul73YThsUmjkCvpPw7Bx59aJzjXbdO/ZaAqoGhgjtaEfhbEsmhaAm3fmX2h/i/mhMtg7MPJA+uZDOrve/EtgiJn36IR9cBoYpNPA7+lcB+6GVw2MA2yB+GZQRf8cDOHjVkL3JKMwiIicZRx6D5cHqo00DSnI/wqj290mJtpIbXVMAMY+0GkvtXt0fJ+Omy+CsAHX4sdgcKGQY73oKQxp2n832m3sBqNlc8ZeCoOvliKpxy/AkNpQVJeJw2hix6adQu+T/AwMYZmVp3dlPQX1IgZh7dWgvbMb7bHSW4+fgSF0lMKjFsa536XI90P1mTiMdi/XzenTNZ0KBr4LQw0mhdVWYJzVY0Fp2X1Ry6B2NySr0w7z0KgrwcCXYWhff9f9AQZD1UDwSXw9KWXv7YfnSL2d3yZx+rkv8ZMvT4pBuiMgDq4sf+IUKPtGP1Cw21KtW2NhheRnrQvTPVeNAuhK4hA1w2UU/6ZZqJaXbdMfF1+9kzhbrAFILQCxhT+pf0dYFHnhV+3d8s6qtz/44pC7pn3uJq9eG0OwSRVBcUYdWkowlLlnvMNOlfxmtRQ3SvoEo4v0521lnsYRW8ETLLacbE6ybWOyR6fS0VVir2v0zQf2N0TWXT5fpLNBkmN4Ktq/ovi9x7SuyYHdeh0vk9HIbVp1Qiml+6q3Tpy8rTxZrDkE4ygZ9esGR8FVdwATNgYmm4xMDdfdXxdnQQ1N2YdcNCcjbtdT3zSrHHXdrKhmoN1VfV5Ri3G7eDFUb6rYSyLmFo2EdUwfPc7HQ+55Xn4hsE6NEXDbCRVlyvOsPOuq6KDt7tzlcaceZTU7XpYgv202Uq2hkF1y+kndJ3dtbWdMdpysyvNYqeQt60yTdF1taxwm9/LxOF3Corduq7rIzH3guC0zMlt1WKWZ6Qe24xJu/ge+kBs829E/ggAAAABJRU5ErkJggg==;" vertex="1" parent="1">
          <mxGeometry x="-80.5" y="220" width="48" height="61.82" as="geometry" />
        </mxCell>
        <mxCell id="oo_KVRj11kOssmEsgrUC-5" value="Front-end" style="text;html=1;align=center;verticalAlign=middle;whiteSpace=wrap;rounded=0;" vertex="1" parent="1">
          <mxGeometry x="-160" y="163.82" width="60" height="30" as="geometry" />
        </mxCell>
        <mxCell id="oo_KVRj11kOssmEsgrUC-6" value="Back-end" style="text;html=1;align=center;verticalAlign=middle;whiteSpace=wrap;rounded=0;" vertex="1" parent="1">
          <mxGeometry x="-160" y="230" width="60" height="30" as="geometry" />
        </mxCell>
        <mxCell id="oo_KVRj11kOssmEsgrUC-7" value="Additional tech" style="text;html=1;align=center;verticalAlign=middle;whiteSpace=wrap;rounded=0;" vertex="1" parent="1">
          <mxGeometry x="-160" y="320" width="60" height="30" as="geometry" />
        </mxCell>
        <mxCell id="oo_KVRj11kOssmEsgrUC-9" value="&lt;font style=&quot;font-size: 25px;&quot; color=&quot;#f9d700&quot;&gt;&lt;b style=&quot;&quot;&gt;Tech stack&lt;/b&gt;&lt;/font&gt;" style="text;html=1;align=center;verticalAlign=middle;whiteSpace=wrap;rounded=0;" vertex="1" parent="1">
          <mxGeometry x="-190" y="80" width="230" height="60" as="geometry" />
        </mxCell>
      </root>
    </mxGraphModel>
  </diagram>
</mxfile>
